<svg id="Layer_1" enable-background="new 0 0 53.927 60" viewBox="0 0 53.927 60" xmlns="http://www.w3.org/2000/svg"><path clip-rule="evenodd" d="m19.39 21.131c6.317-.507 6.771-1.527 1.362-3.069 3.316-1.366 5.661-2.682 1.209-3.661.831-1.418.646-2.182-1.777-1.503-.109-1.657-.954-2.073-2.532-1.246-1.506-2.108-3.051-3.611-4.846-.904-2.629-1.042-4.88-1.552-4.482 1.623-4.2-1.514-5.142-.827-2.823 2.052-3.173-.264-5.624-.187-3.014 2.291-4.058.996-2.462 2.39-.058 3.84-1.369 1.721-1.491 2.805 1.918 2.795.125 3.861.894 5.789 4.873 2.731.736 2.33 1.932 2.516 3.59.563 1.92 1.489 2.689.954 2.307-1.601 2.497 3.034 3.715 2.9 3.657-.401 3.773-.403 3.978-1.571.616-3.51z" fill="#f1592a" fill-rule="evenodd"/><ellipse clip-rule="evenodd" cx="12.348" cy="18.876" fill="#fff" fill-rule="evenodd" rx="3.727" ry="2.228" transform="matrix(.9959 -.0905 .0905 .9959 -1.6574 1.1948)"/><path clip-rule="evenodd" d="m30.719 56.104c.519 1.57 1.378 2.96 3.868 3.896h-15.247c2.489-.936 3.347-2.326 3.87-3.896-3.354-4.47-5.623-21.332-7.463-27.192h22.433c-1.839 5.86-4.107 22.722-7.461 27.192z" fill="#f1592a" fill-rule="evenodd"/><path clip-rule="evenodd" d="m27.121 16.824c.53 5.113.9 10.203-.495 14.131h-2.166c1.064-6.002.6-10.335.051-14.481.869.288 1.737.405 2.61.35z" fill="#f1592a" fill-rule="evenodd"/><path clip-rule="evenodd" d="m16.641 11.273c-4.272-.165-3.023-1.981-.227-2.499-3.315-1.362-5.661-2.682-1.209-3.66-.833-1.419-.646-2.182 1.777-1.503.109-1.658.954-2.069 2.533-1.249 1.508-2.105 3.05-3.608 4.846-.901 2.629-1.042 4.88-1.552 4.482 1.626 4.202-1.517 5.142-.831 2.823 2.052 3.173-.267 5.622-.19 3.014 2.288 4.058.996 2.464 2.39.058 3.84.797 2.066.537 3.375-1.918 2.798-.46 3.389-2.342 3.745-4.873 2.727-.736 2.33-1.93 2.52-3.59.563-1.92 1.489-2.689.954-2.307-1.605-1.132 2.699-3.717 2.907-3.657-.398-2.639.735-5.115-2.144-1.752-4.079z" fill="#f1592a" fill-rule="evenodd"/><path clip-rule="evenodd" d="m39.118 20.675c-1.089 2.386-2.214 5.951-2.693 9.355h-2.69c.483-3.011 1.308-5.67 2.271-8.066.971-.121 2.133-.453 3.112-1.289z" fill="#f1592a" fill-rule="evenodd"/><path clip-rule="evenodd" d="m20.388 21.964c.963 2.396 1.788 5.055 2.271 8.066h-2.69c-.479-3.404-1.604-6.969-2.693-9.355.98.836 2.142 1.168 3.112 1.289z" fill="#f1592a" fill-rule="evenodd"/><path clip-rule="evenodd" d="m38.23 11.206c1.624-6.807 3.164-6.272 4.663-2.407 1.892-1.619 2.986-1.295 3.291.975 5.147-.183 2.597 2.041 1.585 3.787 4.209-.021 4.098 1.215 3.37 2.636 4.915 1.587 2.513 1.957-.935 2.161 5.107 3.023 2.492 2.949-1.225 2.436 1.934 3.667 1.353 4.329-1.742 1.985-.28 2.931-1.684 2.372-4.215-1.679-1.316 3.249-2.949 3.576-5.096.398-2.288 1.517-3.103.764-2.451-2.274-4.236 1.028-5.174.039-2.809-2.967-3.951-3.164-3.467-4.385 1.448-3.671-.154-6.589 2.314-9.204 4.116-1.38z" fill="#f1592a" fill-rule="evenodd"/><ellipse clip-rule="evenodd" cx="24.818" cy="9.589" fill="#fff" fill-rule="evenodd" rx="2.226" ry="3.726" transform="matrix(.0901 -.9959 .9959 .0901 13.0325 33.4431)"/><ellipse clip-rule="evenodd" cx="41.181" cy="15.98" fill="#fff" fill-rule="evenodd" rx="1.792" ry="3.679" transform="matrix(.2211 -.9753 .9753 .2211 16.4927 52.6092)"/></svg>