<?xml version="1.0" encoding="iso-8859-1"?>
<!-- Generator: Adobe Illustrator 19.2.0, SVG Export Plug-In . SVG Version: 6.00 Build 0)  -->
<svg version="1.1" id="Layer_1" xmlns="http://www.w3.org/2000/svg" xmlns:xlink="http://www.w3.org/1999/xlink" x="0px" y="0px"
	 viewBox="0 0 53.927 60" style="enable-background:new 0 0 53.927 60;" xml:space="preserve">
<g>
	<path style="fill-rule:evenodd;clip-rule:evenodd;fill:#F1592A;" d="M19.39,21.131c6.317-0.507,6.771-1.527,1.362-3.069
		c3.316-1.366,5.661-2.682,1.209-3.661c0.831-1.418,0.646-2.182-1.777-1.503c-0.109-1.657-0.954-2.073-2.532-1.246
		c-1.506-2.108-3.051-3.611-4.846-0.904c-2.629-1.042-4.88-1.552-4.482,1.623c-4.2-1.514-5.142-0.827-2.823,2.052
		c-3.173-0.264-5.624-0.187-3.014,2.291c-4.058,0.996-2.462,2.39-0.058,3.84c-1.369,1.721-1.491,2.805,1.918,2.795
		c0.125,3.861,0.894,5.789,4.873,2.731c0.736,2.33,1.932,2.516,3.59,0.563c1.92,1.489,2.689,0.954,2.307-1.601
		c2.497,3.034,3.715,2.9,3.657-0.401C22.547,24.238,22.752,23.07,19.39,21.131z"/>
	
		<ellipse transform="matrix(0.9959 -0.0905 0.0905 0.9959 -1.6574 1.1948)" style="fill-rule:evenodd;clip-rule:evenodd;fill:#FFFFFF;" cx="12.348" cy="18.876" rx="3.727" ry="2.228"/>
	<path style="fill-rule:evenodd;clip-rule:evenodd;fill:#F1592A;" d="M30.719,56.104c0.519,1.57,1.378,2.96,3.868,3.896H19.34
		c2.489-0.936,3.347-2.326,3.87-3.896c-3.354-4.47-5.623-21.332-7.463-27.192H38.18C36.341,34.772,34.073,51.634,30.719,56.104z"/>
	<path style="fill-rule:evenodd;clip-rule:evenodd;fill:#F1592A;" d="M27.121,16.824c0.53,5.113,0.9,10.203-0.495,14.131H24.46
		c1.064-6.002,0.6-10.335,0.051-14.481C25.38,16.762,26.248,16.879,27.121,16.824z"/>
	<path style="fill-rule:evenodd;clip-rule:evenodd;fill:#F1592A;" d="M16.641,11.273c-4.272-0.165-3.023-1.981-0.227-2.499
		c-3.315-1.362-5.661-2.682-1.209-3.66c-0.833-1.419-0.646-2.182,1.777-1.503c0.109-1.658,0.954-2.069,2.533-1.249
		c1.508-2.105,3.05-3.608,4.846-0.901c2.629-1.042,4.88-1.552,4.482,1.626c4.202-1.517,5.142-0.831,2.823,2.052
		c3.173-0.267,5.622-0.19,3.014,2.288c4.058,0.996,2.464,2.39,0.058,3.84c0.797,2.066,0.537,3.375-1.918,2.798
		c-0.46,3.389-2.342,3.745-4.873,2.727c-0.736,2.33-1.93,2.52-3.59,0.563c-1.92,1.489-2.689,0.954-2.307-1.605
		c-1.132,2.699-3.717,2.907-3.657-0.398C15.754,16.087,13.278,13.208,16.641,11.273z"/>
	<path style="fill-rule:evenodd;clip-rule:evenodd;fill:#F1592A;" d="M39.118,20.675c-1.089,2.386-2.214,5.951-2.693,9.355h-2.69
		c0.483-3.011,1.308-5.67,2.271-8.066C36.977,21.843,38.139,21.511,39.118,20.675z"/>
	<path style="fill-rule:evenodd;clip-rule:evenodd;fill:#F1592A;" d="M20.388,21.964c0.963,2.396,1.788,5.055,2.271,8.066h-2.69
		c-0.479-3.404-1.604-6.969-2.693-9.355C18.256,21.511,19.418,21.843,20.388,21.964z"/>
	<path style="fill-rule:evenodd;clip-rule:evenodd;fill:#F1592A;" d="M38.23,11.206c1.624-6.807,3.164-6.272,4.663-2.407
		c1.892-1.619,2.986-1.295,3.291,0.975c5.147-0.183,2.597,2.041,1.585,3.787c4.209-0.021,4.098,1.215,3.37,2.636
		c4.915,1.587,2.513,1.957-0.935,2.161c5.107,3.023,2.492,2.949-1.225,2.436c1.934,3.667,1.353,4.329-1.742,1.985
		c-0.28,2.931-1.684,2.372-4.215-1.679c-1.316,3.249-2.949,3.576-5.096,0.398c-2.288,1.517-3.103,0.764-2.451-2.274
		c-4.236,1.028-5.174,0.039-2.809-2.967c-3.951-3.164-3.467-4.385,1.448-3.671C33.96,5.997,36.428,3.382,38.23,11.206z"/>
	
		<ellipse transform="matrix(0.0901 -0.9959 0.9959 0.0901 13.0325 33.4431)" style="fill-rule:evenodd;clip-rule:evenodd;fill:#FFFFFF;" cx="24.818" cy="9.589" rx="2.226" ry="3.726"/>
	
		<ellipse transform="matrix(0.2211 -0.9753 0.9753 0.2211 16.4927 52.6092)" style="fill-rule:evenodd;clip-rule:evenodd;fill:#FFFFFF;" cx="41.181" cy="15.98" rx="1.792" ry="3.679"/>
</g>
</svg>
