<?xml version="1.0" encoding="iso-8859-1"?>
<!-- Generator: Adobe Illustrator 19.2.0, SVG Export Plug-In . SVG Version: 6.00 Build 0)  -->
<svg version="1.1" id="Layer_1" xmlns="http://www.w3.org/2000/svg" xmlns:xlink="http://www.w3.org/1999/xlink" x="0px" y="0px"
	 viewBox="0 0 215.59 154.49" style="enable-background:new 0 0 215.59 154.49;" xml:space="preserve">
<g>
	<path style="fill:#43AD49;" d="M79.303,56.076c0.113-0.074,0.21-0.161,0.333-0.228c5.383-2.937,13.299,0.393,17.671,4.892
		l0.005,0.001c0.012-0.035,0.026-0.067,0.037-0.103c-2.408-5.076-11.504-10.259-17.238-7.133c-0.389,0.212-0.717,0.471-0.993,0.757
		c-0.325-4.158-0.049-8.287,0.949-12.309c-0.749,1.304-1.351,2.76-1.766,4.36c-4.17,16.118,5.204,34.291,18.614,47.643
		c-4.562-2.999-12.29-4.226-16.237-0.445c-1.213,1.164-1.482,2.733-0.931,3.946c0.233-0.552,0.589-1.085,1.084-1.559
		c4.34-4.16,12.597-3.14,18.006-0.086c3.631,3.397,7.508,6.442,11.465,8.996C94.674,92.418,81.461,74.08,79.303,56.076z"/>
	<path style="fill:#EB5A2D;" d="M75.632,46.955c-0.118,0.472-0.314,1.048-0.447,1.618c-0.146-0.044-0.283-0.211-0.424-0.303
		c-3.704-13.423-4.743-32.353,8.386-44.047c8.899-7.926,19.834-2.049,30.15-3.173c-4.2,1.379-8.345,2.945-12.352,4.755
		c-4.003,1.807-8.248,3.908-11.325,7.12c-2.994,3.125-4.861,7.439-6.541,11.361c-2.25,5.25-4.073,10.692-5.672,16.174
		C76.777,42.614,76.177,44.778,75.632,46.955z M89.574,14.737c-3.067,2.928-4.994,7.042-6.679,10.866
		c-2.055,4.665-3.765,9.484-5.27,14.353c-0.537,1.737-1.035,3.378-1.451,5.091c-0.163,0.671-0.525,1.567-0.441,2.271
		c0.007,0.061,0,0.123-0.004,0.184c2.969-9.219,7.466-17.516,16.526-21.923c4.504-2.191,8.96-3.069,13.673-4.997
		c7.572-3.098,10.238-12.374,13.736-19.219c-6.217,1.673-12.387,3.792-18.277,6.379C97.269,9.552,92.867,11.593,89.574,14.737z"/>
	<path style="fill:#EB5A2D;" d="M112.49,82.579c0.922-0.525,1.822-1.095,2.708-1.685c-0.142,0.116-0.281,0.233-0.412,0.357
		c-2.477,2.353-3.241,6.395-7.116,6.998c-5.487,0.855-9.922-3.05-12.567-6.672c0.308,0.18,0.681,0.308,0.981,0.444
		c1.021,0.469,2.066,0.891,3.116,1.291c2.166,0.824,4.537,1.692,6.881,1.716C108.308,85.051,110.623,83.641,112.49,82.579z
		 M108.275,79.129c-1.462,0.786-2.605,1.725-4.089,2.405c-2.05,0.937-4.115,0.945-6.157,0.488c0.45,0.184,0.893,0.385,1.348,0.555
		c2.125,0.794,4.571,1.784,6.881,1.716c2.26-0.066,4.5-1.346,6.409-2.449c1.165-0.674,2.307-1.394,3.414-2.163
		C113.607,79.159,110.664,77.844,108.275,79.129z"/>
	<path style="fill:#43AD49;" d="M120.985,30.539c0.782,3.941,3.255,7.267,5.736,10.333c3.147,3.887,6.623,7.511,10.223,10.979
		c1.499,1.444,3.02,2.868,4.58,4.247c0.351,0.309,0.707,0.611,1.062,0.916c0.007,0.003,0.013,0.009,0.02,0.012
		c0.144,0.051,0.276,0.135,0.404,0.231c0.152-0.065,0.289-0.138,0.246-0.313c-6.693-6.194-12.071-13.29-12.118-22.748
		c-0.023-4.533,1.009-8.513,1.284-13.112c0.424-7.095-5.565-12.732-9.771-18.07c-0.832,4.599-1.457,9.249-1.849,13.893
		C120.426,21.382,120.103,26.099,120.985,30.539z"/>
	<path style="fill:#43AD49;" d="M142.241,56.806c-0.218-0.175-0.441-0.343-0.656-0.521c-1.36-1.121-2.673-2.299-3.966-3.494
		c-4.054-3.745-7.981-7.668-11.549-11.882c-2.587-3.056-5.613-6.539-6.719-10.48c-1.168-4.163-0.971-8.735-0.685-13.004
		c0.283-4.222,0.793-8.446,1.459-12.642c-0.197,0.801-0.39,1.605-0.65,2.373c-3.037,8.988-12.331,15.631-9.324,26.098
		c4.392,15.291,20.241,21.864,32.642,24.105c0.022-0.014,0.05-0.024,0.076-0.036C142.535,57.066,142.177,56.78,142.241,56.806z"/>
</g>
<g>
	<path style="fill:#006D32;" d="M215.59,123.037c0-0.559-0.283-0.84-0.848-0.84h-5.359c-0.444,0-0.666,0.318-0.666,0.955v9.895
		c0,7.234-2.745,11.854-8.235,13.861c-0.222,0.096-0.414-0.184-0.575-0.84l-6.51-22.859c-0.12-0.502-0.242-0.8-0.363-0.897
		c-0.101-0.076-0.414-0.116-0.938-0.116h-5.449c-0.586,0-0.878,0.174-0.878,0.521c0,0.231,0.061,0.473,0.182,0.723l8.689,24.479
		c0.161,0.503,0.161,0.801,0,0.897c-0.848,0.367-1.912,0.685-3.194,0.955c-1.282,0.27-2.78,0.482-4.496,0.636
		c-0.908,0.116-1.362,0.289-1.362,0.521c0,0.27,0.06,0.473,0.181,0.608l1.423,2.315c0.302,0.424,0.636,0.636,0.999,0.636
		c1.453,0,4.269-0.81,8.447-2.431c3.835-1.504,6.499-2.749,7.992-3.732c3.613-2.353,6.277-4.977,7.993-7.871
		c1.978-3.337,2.967-7.311,2.967-11.922V123.037z M180.562,122.545c-4.34,0.136-7.498,0.232-9.476,0.289
		c-1.978,0.058-2.766,0.088-2.362,0.088c-1.655,0-3.078-0.029-4.269-0.088c-1.191-0.057-2.139-0.153-2.846-0.289
		c-0.424-0.077-0.636-0.289-0.636-0.636v-11.141c0-0.636-0.373-0.955-1.12-0.955c-0.222,0-0.384,0.039-0.484,0.116l-3.966,2.662
		c-0.666,0.502-0.999,0.974-0.999,1.418v11.141c0,0.752,0.333,1.167,0.999,1.244c1.09,0.136,2.438,0.232,4.042,0.29
		c1.605,0.057,3.476,0.087,5.616,0.087c1.089,0,2.29-0.029,3.602-0.087c1.312-0.058,2.756-0.135,4.329-0.232
		c0.202,0.097,0.373,0.193,0.515,0.289c0.141,0.097,0.261,0.184,0.363,0.261c-1.494,3.877-3.124,7.759-4.89,11.646
		c-1.766,3.888-3.689,7.808-5.767,11.763c-0.505,0.945-0.323,1.418,0.545,1.418h5.45c0.545,0,0.918-0.298,1.12-0.897
		c1.957-5.015,3.87-9.674,5.737-13.976c1.866-4.301,3.718-8.294,5.555-11.979c0.08-0.173,0.121-0.53,0.121-1.07
		C181.743,122.979,181.349,122.526,180.562,122.545 M150.347,122.979c0-0.521-0.262-0.781-0.787-0.781h-5.147
		c-0.626,0-0.939,0.261-0.939,0.781v15.741c0,0.599,0.273,0.897,0.818,0.897c0.262,0,0.565-0.116,0.908-0.347l4.299-2.72
		c0.565-0.405,0.848-0.858,0.848-1.36V122.979z M121.585,122.198c-1.393,0-3.674,0.116-6.842,0.347
		c-1.594,0.097-2.987,0.174-4.178,0.232c-1.191,0.057-2.19,0.087-2.997,0.087c-2.362,0-4.557-0.057-6.585-0.173
		c-2.028-0.116-3.9-0.28-5.615-0.492c-0.324-0.019-0.576-0.033-0.757-0.043c-0.182-0.009-0.303-0.014-0.364-0.014
		c-0.544,0-0.999,0.434-1.362,1.302l-0.878,2.083c-0.08,0.136-0.12,0.29-0.12,0.463c0,0.483,0.332,0.724,0.999,0.724
		c0.443,0.039,0.908,0.068,1.393,0.087c0.484,0.019,1.009,0.028,1.574,0.028c0.727,0,1.625-0.028,2.695-0.087
		c1.07-0.057,2.311-0.135,3.724-0.232c2.806-0.232,4.925-0.347,6.358-0.347c0.444,0,0.666,0.222,0.666,0.666v24.162
		c0,0.559,0.232,0.839,0.696,0.839h5.45c0.545,0,0.818-0.26,0.818-0.781v-24.104c0-0.366,0.05-0.578,0.151-0.636
		c0.101-0.057,0.363-0.087,0.787-0.087c0.161,0,0.363,0.005,0.606,0.014c0.242,0.01,0.534,0.024,0.878,0.043
		c0.343,0.02,0.631,0.034,0.863,0.044c0.232,0.009,0.419,0.014,0.56,0.014c0.625,0,1.261-0.829,1.907-2.489
		c0.262-0.482,0.394-0.858,0.394-1.128C122.403,122.372,122.13,122.198,121.585,122.198 M83.923,125.468
		c-2.988-2.565-6.893-3.849-11.717-3.849c-4.42,0-8.003,0.907-10.748,2.72c-2.927,1.871-4.39,4.475-4.39,7.813
		c0,2.681,1.12,4.774,3.36,6.279c1.857,1.312,3.986,1.967,6.389,1.967c0.867,0,1.659-0.11,2.376-0.332
		c0.716-0.222,1.266-0.651,1.65-1.288l0.666-1.187c0.08-0.135,0.121-0.289,0.121-0.462c0-0.347-0.162-0.521-0.484-0.521
		c-0.102,0-0.404,0.049-0.908,0.145c-0.465,0.097-0.807,0.145-1.03,0.145c-1.776,0-3.119-0.473-4.027-1.418
		c-0.908-0.945-1.362-2.171-1.362-3.675c0-1.968,0.716-3.578,2.149-4.833c1.433-1.254,3.26-1.881,5.48-1.881
		c2.967,0,5.368,0.994,7.205,2.98c1.978,2.123,2.967,5.142,2.967,9.058v0.347c0,7.716-3.744,11.574-11.232,11.574
		c-4.36,0-8.073-1.225-11.142-3.675c-0.222-0.153-0.434-0.232-0.636-0.232c-0.323,0-0.484,0.194-0.484,0.579
		c0,0.077,0.005,0.159,0.015,0.246c0.01,0.088,0.025,0.179,0.045,0.276l0.878,2.806c0.12,0.521,0.363,0.936,0.726,1.244
		c0.061,0.02,0.373,0.193,0.938,0.521c2.099,1.196,5.712,1.794,10.839,1.794c4.844,0,8.86-1.331,12.049-3.993
		c3.371-2.874,5.056-6.703,5.056-11.487C88.676,132.094,87.091,128.207,83.923,125.468 M52.133,149.166
		c-0.02-0.308-0.035-0.573-0.045-0.795c-0.01-0.221-0.015-0.409-0.015-0.565v-15.307c0-3.337-0.919-5.922-2.755-7.755
		c-1.817-1.852-4.208-2.778-7.175-2.778c-1.756,0-3.017,0.213-3.784,0.637c-0.222,0.135-0.444,0.313-0.666,0.535
		c-0.223,0.222-0.435,0.497-0.637,0.825l-0.938,1.505c-0.242,0.328-0.363,0.656-0.363,0.984c0,0.482,0.221,0.723,0.666,0.723
		c0.202,0,0.414-0.076,0.636-0.232c0.929-0.868,2.069-1.302,3.421-1.302c0.444,0,0.878,0.058,1.302,0.174
		c2.099,0.559,3.149,2.517,3.149,5.874v15.451v0.29c0,0.482-0.252,0.723-0.757,0.723c-0.283,0-0.666-0.019-1.15-0.057
		s-1.071-0.096-1.756-0.174c-0.687-0.076-1.287-0.135-1.802-0.173c-0.514-0.039-0.943-0.058-1.287-0.058
		c-1.292,0-2.225,0.069-2.8,0.203s-0.863,0.337-0.863,0.607c0,0.058,0.005,0.116,0.015,0.174c0.009,0.057,0.025,0.125,0.045,0.202
		l1.12,2.286c0.323,0.636,0.676,0.955,1.059,0.955c0.787,0,1.968-0.088,3.542-0.261c1.594-0.174,2.805-0.261,3.633-0.261
		c0.403,0,0.893,0.015,1.468,0.043c0.576,0.029,1.247,0.063,2.014,0.102c0.766,0.039,1.433,0.072,1.998,0.102
		c0.565,0.028,1.04,0.043,1.423,0.043c0.867,0,1.301-0.454,1.301-1.36V149.166z M7.992,135.422c0-0.559-0.242-0.839-0.726-0.839
		c-0.121,0-0.374,0.077-0.757,0.232l-4.329,2.025c-0.626,0.251-0.938,0.781-0.938,1.592v12.616c0,0.521,0.272,0.781,0.817,0.781
		h5.086c0.565,0,0.848-0.26,0.848-0.781V135.422z M30.184,135.537c0-4.668-1.544-8.208-4.632-10.619
		c-2.948-2.296-7.005-3.443-12.171-3.443c-3.774,0-7.346,0.675-10.717,2.025c-0.727,0.232-1.222,0.821-1.483,1.766l-1.06,2.864
		C0.04,128.362,0,128.555,0,128.709c0,0.405,0.161,0.607,0.484,0.607c0.221,0,0.414-0.077,0.575-0.232
		c3.512-2.662,7.205-3.993,11.081-3.993c3.592,0,6.342,0.897,8.249,2.691c1.908,1.794,2.861,4.359,2.861,7.697v15.278
		c0,0.714,0.273,1.07,0.817,1.07h5.086c0.686,0,1.03-0.357,1.03-1.07V135.537z"/>
</g>
</svg>
