<?xml version="1.0" encoding="utf-8"?>
<!-- Generator: Adobe Illustrator 19.2.0, SVG Export Plug-In . SVG Version: 6.00 Build 0)  -->
<svg version="1.1" id="Layer_1" xmlns="http://www.w3.org/2000/svg" xmlns:xlink="http://www.w3.org/1999/xlink" x="0px" y="0px"
	 viewBox="0 0 240.3 87.8" style="enable-background:new 0 0 240.3 87.8;" xml:space="preserve">
<style type="text/css">
	.st0{fill:#43AD49;}
	.st1{fill:#EB5A2D;}
	.st2{fill:#006D32;}
	.st3{fill:#FFFFFF;}
</style>
<g>
	<path class="st0" d="M188.9,46.8c0.1-0.1,0.2-0.1,0.3-0.2c4.3-2.4,10.7,0.3,14.2,3.9l0,0c0,0,0-0.1,0-0.1
		c-1.9-4.1-9.2-8.2-13.8-5.7c-0.3,0.2-0.6,0.4-0.8,0.6c-0.3-3.3,0-6.7,0.8-9.9c-0.6,1-1.1,2.2-1.4,3.5c-3.3,12.9,4.2,27.5,14.9,38.2
		c-3.7-2.4-9.9-3.4-13-0.4c-1,0.9-1.2,2.2-0.7,3.2c0.2-0.4,0.5-0.9,0.9-1.3c3.5-3.3,10.1-2.5,14.5-0.1c2.9,2.7,6,5.2,9.2,7.2
		C201.3,76,190.7,61.3,188.9,46.8z"/>
	<path class="st1" d="M186,39.5c-0.1,0.4-0.3,0.8-0.4,1.3c-0.1,0-0.2-0.2-0.3-0.2c-3-10.8-3.8-26,6.7-35.4
		c7.1-6.4,15.9-1.6,24.2-2.5c-3.4,1.1-6.7,2.4-9.9,3.8c-3.2,1.5-6.6,3.1-9.1,5.7c-2.4,2.5-3.9,6-5.3,9.1c-1.8,4.2-3.3,8.6-4.6,13
		C186.9,36,186.4,37.8,186,39.5z M197.2,13.7c-2.5,2.4-4,5.7-5.4,8.7c-1.6,3.7-3,7.6-4.2,11.5c-0.4,1.4-0.8,2.7-1.2,4.1
		c-0.1,0.5-0.4,1.3-0.4,1.8c0,0,0,0.1,0,0.1c2.4-7.4,6-14.1,13.3-17.6c3.6-1.8,7.2-2.5,11-4c6.1-2.5,8.2-9.9,11-15.4
		c-5,1.3-9.9,3-14.7,5.1C203.4,9.5,199.8,11.1,197.2,13.7z"/>
	<path class="st1" d="M215.6,68.1c0.7-0.4,1.5-0.9,2.2-1.4c-0.1,0.1-0.2,0.2-0.3,0.3c-2,1.9-2.6,5.1-5.7,5.6
		c-4.4,0.7-8-2.4-10.1-5.4c0.2,0.1,0.5,0.2,0.8,0.4c0.8,0.4,1.7,0.7,2.5,1c1.7,0.7,3.6,1.4,5.5,1.4C212.2,70.1,214.1,69,215.6,68.1z
		 M212.2,65.3c-1.2,0.6-2.1,1.4-3.3,1.9c-1.6,0.8-3.3,0.8-4.9,0.4c0.4,0.1,0.7,0.3,1.1,0.4c1.7,0.6,3.7,1.4,5.5,1.4
		c1.8-0.1,3.6-1.1,5.1-2c0.9-0.5,1.9-1.1,2.7-1.7C216.5,65.4,214.1,64.3,212.2,65.3z"/>
	<path class="st0" d="M222.4,26.3c0.6,3.2,2.6,5.8,4.6,8.3c2.5,3.1,5.3,6,8.2,8.8c1.2,1.2,2.4,2.3,3.7,3.4c0.3,0.2,0.6,0.5,0.9,0.7
		c0,0,0,0,0,0c0.1,0,0.2,0.1,0.3,0.2c0.1-0.1,0.2-0.1,0.2-0.3c-5.4-5-9.7-10.7-9.7-18.3c0-3.6,0.8-6.8,1-10.5
		c0.3-5.7-4.5-10.2-7.8-14.5c-0.7,3.7-1.2,7.4-1.5,11.2C222,19,221.7,22.8,222.4,26.3z"/>
	<path class="st0" d="M239.5,47.4c-0.2-0.1-0.4-0.3-0.5-0.4c-1.1-0.9-2.1-1.8-3.2-2.8c-3.3-3-6.4-6.2-9.3-9.5
		c-2.1-2.5-4.5-5.2-5.4-8.4c-0.9-3.3-0.8-7-0.5-10.4c0.2-3.4,0.6-6.8,1.2-10.1c-0.2,0.6-0.3,1.3-0.5,1.9c-2.4,7.2-9.9,12.5-7.5,21
		c3.5,12.3,16.2,17.6,26.2,19.4c0,0,0,0,0.1,0C239.7,47.6,239.4,47.4,239.5,47.4z"/>
	<g>
		<path class="st2" d="M0,58.1V44.3c1.3-0.2,2.8-0.3,4.7-0.3c3.6,0,5.4,1.3,5.4,3.8v10.3H0z M8.3,56.7v-8.6c0-0.5-0.1-0.8-0.2-1.2
			c-0.1-0.3-0.3-0.6-0.6-0.7C7.3,46,7,45.9,6.7,45.8c-0.4-0.1-0.7-0.2-1-0.2c-0.3,0-0.7,0-1.1,0c-0.9,0-1.7,0-2.4,0.1l-0.4,0v11H8.3
			z"/>
		<path class="st2" d="M15.2,58.1h-1.8V44.3h1.8V58.1z"/>
		<path class="st2" d="M25.6,57.7v0.4h-1.8v-0.4c0-0.5,0.1-1.2,0.4-2.1c0.2-0.9,0.4-1.5,0.5-1.9c0.2-0.8,0.5-1.7,0.8-2.8l1.5-5.2
			h-8.4v-1.4h10.2v1.4l-1.6,5.5c-0.2,0.7-0.3,1.2-0.5,1.6c-0.1,0.4-0.2,0.9-0.4,1.3c-0.1,0.4-0.2,0.8-0.3,1.1
			c-0.1,0.3-0.2,0.7-0.2,1C25.7,56.9,25.6,57.4,25.6,57.7z M20.5,63.4h-1.8V49.8h1.8V63.4z"/>
		<path class="st2" d="M37,44.1c1.4,0,2.4,0.4,3,1.2c0.7,0.8,1,1.9,1,3.4v9.4h-4.7v-1.4h2.9v-8c0-2.1-1-3.2-2.9-3.2
			c-0.3,0-0.7,0.1-1,0.2c-0.3,0.1-0.6,0.3-0.8,0.4c-0.5,0.4-0.8,0.7-1,0.9l-0.1,0.2l-1,10.8h-1.8l1-10.6c0,0,0-0.1,0-0.2
			s0-0.5-0.1-1c-0.1-0.5-0.2-1-0.4-1.3l-0.3-0.7h1.8c0.2,0.3,0.4,0.8,0.5,1.5h0.1c0.4-0.4,0.8-0.8,1.3-1.1c0.3-0.1,0.6-0.3,1.1-0.4
			C36,44.1,36.5,44.1,37,44.1z"/>
		<path class="st2" d="M50.9,44.3h7.3v1.4l-1.9,7.1l-1.1,5.4h-1.8l1.1-5.4l1.9-7.1h-7.3v-4.2h1.8V44.3z"/>
		<path class="st2" d="M60.9,44.2c0.5-0.1,1.1-0.1,1.7-0.1c0.6,0,1.2,0.1,1.7,0.2c0.5,0.1,0.9,0.3,1.3,0.6c0.4,0.2,0.7,0.5,0.9,0.9
			c0.3,0.3,0.5,0.7,0.7,1c0.2,0.4,0.3,0.7,0.4,1.1c0.2,0.7,0.3,1.4,0.3,2.1v2.3c0,0.4,0,0.9-0.1,1.4s-0.2,0.9-0.3,1.3
			s-0.3,0.7-0.6,1.2c-0.3,0.4-0.6,0.8-0.9,1.1c-0.4,0.3-0.8,0.5-1.4,0.7c-0.6,0.2-1.2,0.3-1.9,0.3c-0.7,0-1.2,0-1.7-0.1
			c-0.5-0.1-0.8-0.1-1.1-0.2l-0.3-0.1v-1.6c0.9,0.3,2,0.5,3.1,0.5c0.4,0,0.8-0.1,1.2-0.2c0.4-0.1,0.6-0.3,0.9-0.5
			c0.2-0.2,0.4-0.4,0.6-0.7c0.2-0.3,0.3-0.5,0.4-0.8c0.1-0.3,0.2-0.5,0.2-0.8c0.1-0.5,0.1-0.9,0.1-1.4v-2.1c0-0.9-0.1-1.7-0.3-2.3
			c-0.1-0.3-0.2-0.5-0.4-0.8c-0.2-0.3-0.4-0.5-0.6-0.7c-0.2-0.2-0.5-0.4-0.9-0.5c-0.4-0.1-0.8-0.2-1.4-0.2c-0.5,0-1,0-1.5,0.1
			c-0.5,0.1-0.9,0.2-1.1,0.3l-0.3,0.1v-1.6c0.1,0,0.2-0.1,0.3-0.2C60,44.4,60.3,44.3,60.9,44.2z"/>
		<path class="st2" d="M71.3,44.3h7.3v1.4l-1.9,7.1l-1.1,5.4h-1.8l1.1-5.4l1.9-7.1h-7.3v-4.2h1.8V44.3z"/>
		<path class="st2" d="M88.5,44.3l1.6,6.2c0.2,0.9,0.6,2.8,1.3,5.7c2.1-0.8,3.3-2.8,3.6-5.9l0.5-6h1.8l-0.5,6
			c-0.1,0.9-0.2,1.7-0.4,2.4c-0.2,0.7-0.4,1.2-0.6,1.6c-0.2,0.4-0.5,0.8-0.9,1.3c-0.4,0.4-0.8,0.8-1.2,1.1c-0.5,0.3-1,0.6-1.7,0.9
			c-0.7,0.3-1.4,0.4-2.3,0.6l-4,0.6v-1.4l4.2-0.7l-3.2-12.3H88.5z"/>
		<path class="st2" d="M100,53.4v-9.2h1.8v7.3l-1.4,1.8H100z"/>
		<path class="st2" d="M106.8,45.5c-0.4,0-0.8,0.1-1.3,0.2v-1.4c0.6-0.2,1.2-0.2,1.9-0.2c2.2,0,3.3,1.2,3.3,3.7v10.4h-1.5l-0.2-2.3
			H109c0,0.1-0.1,0.2-0.3,0.5c-0.1,0.2-0.3,0.4-0.4,0.6c-0.1,0.2-0.3,0.3-0.5,0.5c-0.2,0.2-0.4,0.4-0.6,0.5
			c-0.2,0.1-0.5,0.3-0.8,0.4c-0.3,0.1-0.6,0.1-0.9,0.1c-0.7,0-1.2,0-1.5-0.1l0.3-1.6c0.3,0.1,0.8,0.1,1.5,0.1c0.5,0,1-0.2,1.6-0.6
			c0.7-0.5,1.2-1.2,1.4-2c0.2-0.5,0.2-1,0.2-1.6v-4.5c0-0.9-0.2-1.5-0.6-1.9C108.1,45.7,107.6,45.5,106.8,45.5z"/>
		<path class="st2" d="M119.9,44.1c1.3,0,2.4,0.4,3,1.2c0.7,0.8,1,1.9,1,3.4v9.4h-4.7v-1.4h2.9v-8c0-2.1-1-3.2-2.9-3.2
			c-0.3,0-0.7,0.1-1,0.2c-0.3,0.1-0.6,0.3-0.8,0.4c-0.5,0.4-0.8,0.7-1,0.9l-0.1,0.2l-1,10.8h-1.8l1-10.6c0,0,0-0.1,0-0.2
			s0-0.5-0.2-1c-0.1-0.5-0.2-1-0.4-1.3l-0.3-0.7h1.8c0.2,0.3,0.4,0.8,0.5,1.5h0.1c0.4-0.4,0.8-0.8,1.3-1.1c0.3-0.1,0.6-0.3,1.1-0.4
			C119,44.1,119.4,44.1,119.9,44.1z"/>
		<path class="st2" d="M132.7,56.7c1.5,0,2.7-0.5,3.6-1.6c1-1,1.6-2.7,1.8-4.8l0.5-6h1.8l-0.5,6c-0.1,0.9-0.2,1.8-0.4,2.5
			c-0.2,0.7-0.5,1.3-0.7,1.8c-0.2,0.5-0.5,0.9-0.9,1.4c-0.4,0.4-0.8,0.8-1.3,1.1c-0.5,0.3-1.1,0.6-1.8,0.8c-0.7,0.2-1.5,0.3-2.3,0.3
			h-4.6l-1.1-13.8h1.8l0.6,7.7l1.4-0.5c1.1-0.4,1.7-1.4,1.9-3l0.4-4.3h1.8l-0.4,3.6c0,0.5-0.1,0.9-0.2,1.3c-0.1,0.4-0.2,0.8-0.4,1.2
			c-0.2,0.4-0.4,0.8-0.6,1.1c-0.3,0.3-0.6,0.6-1,0.9c-0.4,0.3-0.9,0.5-1.4,0.6l-1.4,0.4l0.3,3.3H132.7z"/>
		<path class="st2" d="M148.7,53.4v-9.2h1.8v7.3l-1.4,1.8H148.7z"/>
		<path class="st2" d="M152.9,49c0-0.8,0.2-1.5,0.5-2.1c0.3-0.6,0.7-1.2,1.2-1.6s1.1-0.7,1.7-0.9c0.6-0.2,1.2-0.3,1.8-0.3
			c0.6,0,1.2,0.1,1.7,0.3s1,0.4,1.5,0.8c0.5,0.4,0.8,0.8,1.2,1.4c0.3,0.5,0.6,1.2,0.8,2c0.2,0.8,0.3,1.7,0.3,2.7
			c0,1-0.1,1.9-0.3,2.7c-0.2,0.8-0.4,1.5-0.8,2c-0.3,0.5-0.7,1-1.2,1.4c-0.9,0.7-1.9,1.1-3.2,1.1c-1.2,0-2.4-0.1-3.5-0.2l-0.5-0.1
			v-1.5c0,0,0.2,0,0.5,0.1c1.1,0.2,2.3,0.2,3.5,0.2c0.5,0,1-0.1,1.4-0.3c0.4-0.2,0.8-0.5,1-0.8c0.3-0.3,0.5-0.8,0.6-1.3
			c0.3-0.9,0.4-1.9,0.4-3.2c0-1.6-0.2-2.8-0.7-3.9c-0.3-0.6-0.6-1-1.1-1.3c-0.5-0.3-1-0.5-1.6-0.5c-0.6,0-1.1,0.1-1.5,0.2
			c-0.4,0.1-0.8,0.3-1,0.6c-0.3,0.2-0.5,0.5-0.6,0.8c-0.3,0.6-0.5,1.2-0.5,1.9c0,1,0.2,1.7,0.6,2.2c0.4,0.5,1.1,0.8,2.1,1l0.5,0.1
			l-0.3,1.3l-0.4-0.1c-1.2-0.2-2.2-0.6-3-1.4C153.3,51.3,152.9,50.3,152.9,49z"/>
		<path class="st2" d="M168,58.1h-1.8V44.3h1.8V58.1z"/>
		<path class="st2" d="M171.3,53.4v-9.2h1.8v7.3l-1.4,1.8H171.3z"/>
	</g>
	<path class="st2" d="M173.1,10.6c0-0.4-0.2-0.7-0.7-0.7h-4.3c-0.4,0-0.5,0.3-0.5,0.8v7.9c0,5.8-2.2,9.5-6.6,11.1
		c-0.2,0.1-0.3-0.1-0.5-0.7l-5.2-18.4c-0.1-0.4-0.2-0.6-0.3-0.7c-0.1-0.1-0.3-0.1-0.8-0.1h-4.4c-0.5,0-0.7,0.1-0.7,0.4
		c0,0.2,0,0.4,0.1,0.6l7,19.7c0.1,0.4,0.1,0.6,0,0.7c-0.7,0.3-1.5,0.6-2.6,0.8c-1,0.2-2.2,0.4-3.6,0.5c-0.7,0.1-1.1,0.2-1.1,0.4
		c0,0.2,0,0.4,0.1,0.5l1.1,1.9c0.2,0.3,0.5,0.5,0.8,0.5c1.2,0,3.4-0.7,6.8-2c3.1-1.2,5.2-2.2,6.4-3c2.9-1.9,5-4,6.4-6.3
		c1.6-2.7,2.4-5.9,2.4-9.6V10.6z M144.9,10.2c-3.5,0.1-6,0.2-7.6,0.2c-1.6,0-2.2,0.1-1.9,0.1c-1.3,0-2.5,0-3.4-0.1
		c-1,0-1.7-0.1-2.3-0.2c-0.3-0.1-0.5-0.2-0.5-0.5V0.8c0-0.5-0.3-0.8-0.9-0.8c-0.2,0-0.3,0-0.4,0.1l-3.2,2.1C124.2,2.6,124,3,124,3.4
		v8.9c0,0.6,0.3,0.9,0.8,1c0.9,0.1,2,0.2,3.2,0.2c1.3,0,2.8,0.1,4.5,0.1c0.9,0,1.8,0,2.9-0.1c1.1,0,2.2-0.1,3.5-0.2
		c0.2,0.1,0.3,0.2,0.4,0.2c0.1,0.1,0.2,0.1,0.3,0.2c-1.2,3.1-2.5,6.2-3.9,9.3c-1.4,3.1-3,6.3-4.6,9.4c-0.4,0.8-0.3,1.1,0.4,1.1h4.4
		c0.4,0,0.7-0.2,0.9-0.7c1.6-4,3.1-7.8,4.6-11.2c1.5-3.5,3-6.7,4.5-9.6c0.1-0.1,0.1-0.4,0.1-0.9C145.9,10.6,145.6,10.2,144.9,10.2
		 M120.7,10.6c0-0.4-0.2-0.6-0.6-0.6h-4.1c-0.5,0-0.8,0.2-0.8,0.6v12.6c0,0.5,0.2,0.7,0.7,0.7c0.2,0,0.5-0.1,0.7-0.3l3.5-2.2
		c0.5-0.3,0.7-0.7,0.7-1.1V10.6z M97.6,9.9c-1.1,0-2.9,0.1-5.5,0.3c-1.3,0.1-2.4,0.1-3.4,0.2c-1,0-1.8,0.1-2.4,0.1
		c-1.9,0-3.7,0-5.3-0.1c-1.6-0.1-3.1-0.2-4.5-0.4c-0.3,0-0.5,0-0.6,0c-0.1,0-0.2,0-0.3,0c-0.4,0-0.8,0.3-1.1,1l-0.7,1.7
		c-0.1,0.1-0.1,0.2-0.1,0.4c0,0.4,0.3,0.6,0.8,0.6c0.4,0,0.7,0.1,1.1,0.1s0.8,0,1.3,0c0.6,0,1.3,0,2.2-0.1c0.9,0,1.9-0.1,3-0.2
		c2.3-0.2,4-0.3,5.1-0.3c0.4,0,0.5,0.2,0.5,0.5v19.4c0,0.4,0.2,0.7,0.6,0.7h4.4c0.4,0,0.7-0.2,0.7-0.6V13.8c0-0.3,0-0.5,0.1-0.5
		c0.1,0,0.3-0.1,0.6-0.1c0.1,0,0.3,0,0.5,0c0.2,0,0.4,0,0.7,0c0.3,0,0.5,0,0.7,0c0.2,0,0.3,0,0.4,0c0.5,0,1-0.7,1.5-2
		c0.2-0.4,0.3-0.7,0.3-0.9C98.3,10.1,98,9.9,97.6,9.9 M67.4,12.6C65,10.5,61.8,9.5,58,9.5c-3.5,0-6.4,0.7-8.6,2.2
		c-2.3,1.5-3.5,3.6-3.5,6.3c0,2.2,0.9,3.8,2.7,5c1.5,1.1,3.2,1.6,5.1,1.6c0.7,0,1.3-0.1,1.9-0.3c0.6-0.2,1-0.5,1.3-1l0.5-1
		c0.1-0.1,0.1-0.2,0.1-0.4c0-0.3-0.1-0.4-0.4-0.4c-0.1,0-0.3,0-0.7,0.1c-0.4,0.1-0.6,0.1-0.8,0.1c-1.4,0-2.5-0.4-3.2-1.1
		c-0.7-0.8-1.1-1.7-1.1-3c0-1.6,0.6-2.9,1.7-3.9c1.2-1,2.6-1.5,4.4-1.5c2.4,0,4.3,0.8,5.8,2.4c1.6,1.7,2.4,4.1,2.4,7.3v0.3
		c0,6.2-3,9.3-9,9.3c-3.5,0-6.5-1-8.9-3c-0.2-0.1-0.3-0.2-0.5-0.2c-0.3,0-0.4,0.2-0.4,0.5c0,0.1,0,0.1,0,0.2c0,0.1,0,0.1,0,0.2
		l0.7,2.3c0.1,0.4,0.3,0.8,0.6,1c0,0,0.3,0.2,0.8,0.4c1.7,1,4.6,1.4,8.7,1.4c3.9,0,7.1-1.1,9.7-3.2c2.7-2.3,4.1-5.4,4.1-9.2
		C71.2,17.9,69.9,14.8,67.4,12.6 M41.9,31.6c0-0.2,0-0.5,0-0.6c0-0.2,0-0.3,0-0.5V18.2c0-2.7-0.7-4.8-2.2-6.2
		c-1.5-1.5-3.4-2.2-5.8-2.2c-1.4,0-2.4,0.2-3,0.5c-0.2,0.1-0.4,0.3-0.5,0.4c-0.2,0.2-0.3,0.4-0.5,0.7L29,12.6
		c-0.2,0.3-0.3,0.5-0.3,0.8c0,0.4,0.2,0.6,0.5,0.6c0.2,0,0.3-0.1,0.5-0.2c0.7-0.7,1.7-1,2.7-1c0.4,0,0.7,0,1,0.1
		c1.7,0.4,2.5,2,2.5,4.7V30v0.2c0,0.4-0.2,0.6-0.6,0.6c-0.2,0-0.5,0-0.9,0c-0.4,0-0.9-0.1-1.4-0.1c-0.6-0.1-1-0.1-1.4-0.1
		c-0.4,0-0.8,0-1,0c-1,0-1.8,0.1-2.2,0.2c-0.5,0.1-0.7,0.3-0.7,0.5c0,0,0,0.1,0,0.1c0,0,0,0.1,0,0.2l0.9,1.8
		c0.3,0.5,0.5,0.8,0.9,0.8c0.6,0,1.6-0.1,2.8-0.2c1.3-0.1,2.3-0.2,2.9-0.2c0.3,0,0.7,0,1.2,0c0.5,0,1,0.1,1.6,0.1
		c0.6,0,1.2,0.1,1.6,0.1c0.5,0,0.8,0,1.1,0c0.7,0,1-0.4,1-1.1V31.6z M6.4,20.6c0-0.4-0.2-0.7-0.6-0.7c-0.1,0-0.3,0.1-0.6,0.2
		l-3.5,1.6C1.2,21.9,1,22.3,1,23v10.1c0,0.4,0.2,0.6,0.7,0.6h4.1c0.5,0,0.7-0.2,0.7-0.6V20.6z M24.2,20.7c0-3.7-1.2-6.6-3.7-8.5
		c-2.4-1.8-5.6-2.8-9.8-2.8c-3,0-5.9,0.5-8.6,1.6c-0.6,0.2-1,0.7-1.2,1.4l-0.9,2.3C0,14.9,0,15,0,15.2c0,0.3,0.1,0.5,0.4,0.5
		c0.2,0,0.3-0.1,0.5-0.2c2.8-2.1,5.8-3.2,8.9-3.2c2.9,0,5.1,0.7,6.6,2.2c1.5,1.4,2.3,3.5,2.3,6.2v12.3c0,0.6,0.2,0.9,0.7,0.9h4.1
		c0.6,0,0.8-0.3,0.8-0.9V20.7z"/>
	<path class="st2" d="M170.1,87.8H3c-1.7,0-3-1.3-3-3l0-15.1c0-1.7,1.3-3,3-3h167.1c1.7,0,3,1.3,3,3v15.1
		C173.1,86.4,171.7,87.8,170.1,87.8z"/>
	<g>
		<path class="st3" d="M15.1,80.6c0.7,0,1.2-0.1,1.6-0.4c0.4-0.3,0.6-0.7,0.6-1.1c0-0.3-0.1-0.6-0.2-0.8c-0.1-0.2-0.3-0.4-0.6-0.6
			c-0.3-0.2-0.8-0.4-1.4-0.6c-0.9-0.3-1.5-0.7-1.9-1.1c-0.4-0.4-0.6-1-0.6-1.7s0.3-1.3,0.8-1.7c0.5-0.4,1.3-0.6,2.2-0.6
			c0.9,0,1.7,0.2,2.5,0.5l-0.3,0.9C17,73.1,16.3,73,15.5,73c-0.6,0-1,0.1-1.3,0.4s-0.5,0.6-0.5,1c0,0.3,0.1,0.6,0.2,0.8
			s0.3,0.4,0.6,0.6s0.7,0.4,1.3,0.6c1,0.4,1.7,0.7,2,1.1s0.5,0.9,0.5,1.5c0,0.8-0.3,1.4-0.9,1.9c-0.6,0.5-1.4,0.7-2.5,0.7
			s-1.9-0.1-2.5-0.4v-1C13.3,80.4,14.2,80.6,15.1,80.6z"/>
		<path class="st3" d="M23.9,72.6c0-0.2,0.1-0.4,0.2-0.5c0.1-0.1,0.3-0.2,0.4-0.2s0.3,0.1,0.5,0.2s0.2,0.3,0.2,0.5
			c0,0.2-0.1,0.4-0.2,0.5c-0.1,0.1-0.3,0.2-0.5,0.2s-0.3-0.1-0.4-0.2C23.9,73,23.9,72.8,23.9,72.6z M25,81.4H24v-6.9H25V81.4z"/>
		<path class="st3" d="M34.4,74.3c0.8,0,1.5,0.2,1.9,0.6c0.4,0.4,0.6,1.1,0.6,1.9v4.5h-1.1v-4.5c0-0.6-0.1-1-0.4-1.3
			c-0.3-0.3-0.7-0.4-1.2-0.4c-0.7,0-1.3,0.2-1.6,0.6c-0.3,0.4-0.5,1-0.5,1.9v3.6h-1.1v-6.9H32l0.2,1h0.1c0.2-0.3,0.5-0.6,0.9-0.8
			C33.5,74.4,33.9,74.3,34.4,74.3z"/>
		<path class="st3" d="M45.8,81.5c-1,0-1.8-0.3-2.3-0.9c-0.5-0.6-0.8-1.5-0.8-2.6c0-1.1,0.3-2,0.8-2.7c0.6-0.6,1.4-1,2.4-1
			c0.3,0,0.6,0,1,0.1c0.3,0.1,0.6,0.2,0.8,0.3l-0.3,0.9c-0.2-0.1-0.5-0.2-0.7-0.2c-0.3-0.1-0.5-0.1-0.7-0.1c-1.4,0-2.1,0.9-2.1,2.7
			c0,0.9,0.2,1.5,0.5,2s0.9,0.7,1.5,0.7c0.6,0,1.2-0.1,1.8-0.4v0.9C47.1,81.4,46.5,81.5,45.8,81.5z"/>
		<path class="st3" d="M56,81.5c-1,0-1.8-0.3-2.4-0.9C53,80,52.7,79.1,52.7,78s0.3-2,0.8-2.7c0.6-0.7,1.3-1,2.2-1s1.6,0.3,2.1,0.9
			c0.5,0.6,0.8,1.3,0.8,2.3v0.7h-4.8c0,0.8,0.2,1.4,0.6,1.9c0.4,0.4,0.9,0.6,1.7,0.6s1.5-0.2,2.2-0.5v0.9c-0.4,0.2-0.7,0.3-1.1,0.3
			C56.9,81.5,56.5,81.5,56,81.5z M57.4,77.3c0-0.7-0.1-1.2-0.4-1.5c-0.3-0.4-0.7-0.5-1.3-0.5c-0.6,0-1,0.2-1.3,0.5
			c-0.3,0.4-0.5,0.9-0.6,1.5H57.4z"/>
		<path class="st3" d="M74.9,81.4h-1v-6.6c0-0.5,0-1,0.1-1.6c-0.1,0.1-0.2,0.2-0.3,0.2s-0.6,0.5-1.5,1.3L71.6,74l2.5-1.9h0.9V81.4z"
			/>
		<path class="st3" d="M85.1,77.9c-0.8,0-1.5-0.2-2-0.7c-0.5-0.5-0.7-1.2-0.7-2c0-1,0.3-1.7,0.8-2.3c0.5-0.6,1.2-0.8,2.1-0.8
			c0,0,0,0,0.1,0c0.9,0,1.7,0.4,2.2,1.1c0.6,0.7,0.8,1.7,0.8,2.9c0,0,0,0,0,0.1c0,3.6-1.4,5.4-4.2,5.4c-0.5,0-0.9,0-1.2-0.1v-0.9
			c0.3,0.1,0.7,0.2,1.2,0.2c1,0,1.8-0.3,2.3-0.9c0.5-0.6,0.8-1.6,0.8-2.9h-0.1c-0.2,0.4-0.5,0.6-0.9,0.8
			C86,77.8,85.5,77.9,85.1,77.9z M83.9,73.5c-0.3,0.4-0.5,0.9-0.5,1.6s0.2,1.2,0.5,1.5c0.3,0.3,0.8,0.5,1.4,0.5c0,0,0.1,0,0.1,0
			c0.5,0,1-0.2,1.4-0.5c0.4-0.3,0.6-0.7,0.6-1.2c0,0,0,0,0,0c0-0.4-0.1-0.8-0.3-1.2s-0.4-0.7-0.7-0.9c-0.3-0.2-0.7-0.3-1-0.3
			c0,0,0,0,0,0C84.7,72.9,84.2,73.1,83.9,73.5z"/>
		<path class="st3" d="M94,74.2c0-0.7,0.2-1.2,0.7-1.6c0.5-0.4,1.2-0.6,2-0.6s1.5,0.2,2,0.6c0.5,0.4,0.7,0.9,0.7,1.6
			c0,0.5-0.1,0.9-0.4,1.3c-0.3,0.4-0.7,0.7-1.4,1c0.8,0.4,1.3,0.7,1.6,1.1c0.3,0.4,0.5,0.8,0.5,1.4c0,0.8-0.3,1.4-0.8,1.8
			c-0.5,0.5-1.3,0.7-2.2,0.7c-1,0-1.7-0.2-2.2-0.6c-0.5-0.4-0.8-1-0.8-1.8c0-1.1,0.6-1.9,1.9-2.5c-0.6-0.3-1-0.7-1.2-1.1
			S94,74.7,94,74.2z M95.1,77.9c-0.3,0.3-0.4,0.7-0.4,1.2s0.2,0.9,0.5,1.1s0.8,0.4,1.5,0.4s1.1-0.1,1.5-0.4c0.4-0.3,0.5-0.7,0.5-1.2
			c0-0.4-0.2-0.8-0.5-1.1c-0.3-0.3-0.9-0.6-1.7-0.9C95.9,77.3,95.4,77.6,95.1,77.9z M98,73.2c-0.3-0.3-0.7-0.4-1.3-0.4
			c-0.5,0-1,0.1-1.2,0.4c-0.3,0.3-0.4,0.6-0.4,1s0.1,0.7,0.4,1c0.2,0.3,0.7,0.6,1.4,0.8c0.6-0.3,1-0.5,1.3-0.8
			c0.2-0.3,0.4-0.6,0.4-1C98.4,73.8,98.3,73.5,98,73.2z"/>
		<path class="st3" d="M107.7,77.9c-0.8,0-1.5-0.2-2-0.7c-0.5-0.5-0.7-1.2-0.7-2c0-1,0.3-1.7,0.8-2.3c0.5-0.6,1.2-0.8,2.1-0.8
			c0,0,0,0,0.1,0c0.9,0,1.7,0.4,2.2,1.1c0.6,0.7,0.8,1.7,0.8,2.9c0,0,0,0,0,0.1c0,3.6-1.4,5.4-4.2,5.4c-0.5,0-0.9,0-1.2-0.1v-0.9
			c0.3,0.1,0.7,0.2,1.2,0.2c1,0,1.8-0.3,2.3-0.9c0.5-0.6,0.8-1.6,0.8-2.9h-0.1c-0.2,0.4-0.5,0.6-0.9,0.8
			C108.6,77.8,108.2,77.9,107.7,77.9z M106.5,73.5c-0.3,0.4-0.5,0.9-0.5,1.6s0.2,1.2,0.5,1.5c0.3,0.3,0.8,0.5,1.4,0.5
			c0,0,0.1,0,0.1,0c0.5,0,1-0.2,1.4-0.5c0.4-0.3,0.6-0.7,0.6-1.2c0,0,0,0,0,0c0-0.4-0.1-0.8-0.3-1.2s-0.4-0.7-0.7-0.9
			c-0.3-0.2-0.7-0.3-1-0.3c0,0,0,0,0,0C107.3,72.9,106.9,73.1,106.5,73.5z"/>
		<path class="st3" d="M133.1,73.2v0.7c-0.9,0.2-1.3,0.9-1.3,1.8v5.6h-1.1v-5.6c0-0.2,0-0.5,0.1-0.7c0.1-0.2,0.1-0.4,0.2-0.5
			c0.2-0.2,0.3-0.4,0.5-0.5l0.1,0v0h-4.5v-0.8H133.1z"/>
		<path class="st3" d="M141,73.1c1,0,1.8,0.3,2.3,1c0.6,0.7,0.9,1.8,0.9,3.2c0,0.6-0.1,1.1-0.2,1.6c-0.1,0.5-0.3,0.9-0.5,1.2
			s-0.4,0.6-0.7,0.8c-0.3,0.2-0.6,0.4-0.9,0.5s-0.6,0.2-1,0.2c-0.4,0-0.7-0.1-1-0.2s-0.6-0.3-0.9-0.5c-0.3-0.2-0.5-0.5-0.7-0.8
			s-0.3-0.7-0.5-1.2c-0.1-0.5-0.2-1-0.2-1.6c0-0.8,0.1-1.5,0.3-2s0.4-1,0.7-1.3l-0.8,0v-0.9C138.9,73.1,139.9,73.1,141,73.1z
			 M139.2,75.5c-0.2,0.6-0.2,1.2-0.2,1.7s0,1,0.1,1.4s0.2,0.7,0.3,1.1s0.4,0.6,0.7,0.8c0.3,0.2,0.6,0.3,1,0.3c0.4,0,0.7-0.1,1-0.3
			c0.3-0.2,0.5-0.4,0.7-0.8c0.3-0.6,0.4-1.4,0.4-2.3c0-1.2-0.2-2.1-0.6-2.6c-0.2-0.2-0.4-0.4-0.6-0.5c-0.3-0.1-0.5-0.2-0.9-0.2
			l-1.1,0C139.6,74.4,139.3,74.8,139.2,75.5z"/>
		<path class="st3" d="M150.8,81.4h-1.1v-8.2h1.1V81.4z"/>
		<path class="st3" d="M157.9,73.9c-0.2,0-0.5,0-0.8,0.1v-0.8c0.3-0.1,0.7-0.1,1.1-0.1c1.3,0,2,0.7,2,2.2v4.1c0,0.3,0,0.7-0.1,1
			c0,0.3-0.1,0.6-0.1,0.7l-0.1,0.2h-3.8v-0.8h2.8c0.1-0.3,0.1-0.7,0.1-1.2v-4c0-0.5-0.1-0.9-0.3-1.1C158.7,74,158.4,73.9,157.9,73.9
			z"/>
	</g>
</g>
</svg>
