<svg id="Layer_1" enable-background="new 0 0 215.59 154.49" viewBox="0 0 215.59 154.49" xmlns="http://www.w3.org/2000/svg"><path d="m79.303 56.076c.113-.074.21-.161.333-.228 5.383-2.937 13.299.393 17.671 4.892l.005.001c.012-.035.026-.067.037-.103-2.408-5.076-11.504-10.259-17.238-7.133-.389.212-.717.471-.993.757-.325-4.158-.049-8.287.949-12.309-.749 1.304-1.351 2.76-1.766 4.36-4.17 16.118 5.204 34.291 18.614 47.643-4.562-2.999-12.29-4.226-16.237-.445-1.213 1.164-1.482 2.733-.931 3.946.233-.552.589-1.085 1.084-1.559 4.34-4.16 12.597-3.14 18.006-.086 3.631 3.397 7.508 6.442 11.465 8.996-15.628-12.39-28.841-30.728-30.999-48.732z" fill="#43ad49"/><path d="m75.632 46.955c-.118.472-.314 1.048-.447 1.618-.146-.044-.283-.211-.424-.303-3.704-13.423-4.743-32.353 8.386-44.047 8.899-7.926 19.834-2.049 30.15-3.173-4.2 1.379-8.345 2.945-12.352 4.755-4.003 1.807-8.248 3.908-11.325 7.12-2.994 3.125-4.861 7.439-6.541 11.361-2.25 5.25-4.073 10.692-5.672 16.174-.63 2.154-1.23 4.318-1.775 6.495zm13.942-32.218c-3.067 2.928-4.994 7.042-6.679 10.866-2.055 4.665-3.765 9.484-5.27 14.353-.537 1.737-1.035 3.378-1.451 5.091-.163.671-.525 1.567-.441 2.271.007.061 0 .123-.004.184 2.969-9.219 7.466-17.516 16.526-21.923 4.504-2.191 8.96-3.069 13.673-4.997 7.572-3.098 10.238-12.374 13.736-19.219-6.217 1.673-12.387 3.792-18.277 6.379-4.118 1.81-8.52 3.851-11.813 6.995z" fill="#eb5a2d"/><path d="m112.49 82.579c.922-.525 1.822-1.095 2.708-1.685-.142.116-.281.233-.412.357-2.477 2.353-3.241 6.395-7.116 6.998-5.487.855-9.922-3.05-12.567-6.672.308.18.681.308.981.444 1.021.469 2.066.891 3.116 1.291 2.166.824 4.537 1.692 6.881 1.716 2.227.023 4.542-1.387 6.409-2.449zm-4.215-3.45c-1.462.786-2.605 1.725-4.089 2.405-2.05.937-4.115.945-6.157.488.45.184.893.385 1.348.555 2.125.794 4.571 1.784 6.881 1.716 2.26-.066 4.5-1.346 6.409-2.449 1.165-.674 2.307-1.394 3.414-2.163-2.474-.522-5.417-1.837-7.806-.552z" fill="#eb5a2d"/><path d="m120.985 30.539c.782 3.941 3.255 7.267 5.736 10.333 3.147 3.887 6.623 7.511 10.223 10.979 1.499 1.444 3.02 2.868 4.58 4.247.351.309.707.611 1.062.916.007.003.013.009.02.012.144.051.276.135.404.231.152-.065.289-.138.246-.313-6.693-6.194-12.071-13.29-12.118-22.748-.023-4.533 1.009-8.513 1.284-13.112.424-7.095-5.565-12.732-9.771-18.07-.832 4.599-1.457 9.249-1.849 13.893-.376 4.475-.699 9.192.183 13.632z" fill="#43ad49"/><path d="m142.241 56.806c-.218-.175-.441-.343-.656-.521-1.36-1.121-2.673-2.299-3.966-3.494-4.054-3.745-7.981-7.668-11.549-11.882-2.587-3.056-5.613-6.539-6.719-10.48-1.168-4.163-.971-8.735-.685-13.004.283-4.222.793-8.446 1.459-12.642-.197.801-.39 1.605-.65 2.373-3.037 8.988-12.331 15.631-9.324 26.098 4.392 15.291 20.241 21.864 32.642 24.105.022-.014.05-.024.076-.036-.334-.257-.692-.543-.628-.517z" fill="#43ad49"/><path d="m215.59 123.037c0-.559-.283-.84-.848-.84h-5.359c-.444 0-.666.318-.666.955v9.895c0 7.234-2.745 11.854-8.235 13.861-.222.096-.414-.184-.575-.84l-6.51-22.859c-.12-.502-.242-.8-.363-.897-.101-.076-.414-.116-.938-.116h-5.449c-.586 0-.878.174-.878.521 0 .231.061.473.182.723l8.689 24.479c.161.503.161.801 0 .897-.848.367-1.912.685-3.194.955-1.282.27-2.78.482-4.496.636-.908.116-1.362.289-1.362.521 0 .27.06.473.181.608l1.423 2.315c.302.424.636.636.999.636 1.453 0 4.269-.81 8.447-2.431 3.835-1.504 6.499-2.749 7.992-3.732 3.613-2.353 6.277-4.977 7.993-7.871 1.978-3.337 2.967-7.311 2.967-11.922zm-35.028-.492c-4.34.136-7.498.232-9.476.289-1.978.058-2.766.088-2.362.088-1.655 0-3.078-.029-4.269-.088-1.191-.057-2.139-.153-2.846-.289-.424-.077-.636-.289-.636-.636v-11.141c0-.636-.373-.955-1.12-.955-.222 0-.384.039-.484.116l-3.966 2.662c-.666.502-.999.974-.999 1.418v11.141c0 .752.333 1.167.999 1.244 1.09.136 2.438.232 4.042.29 1.605.057 3.476.087 5.616.087 1.089 0 2.29-.029 3.602-.087 1.312-.058 2.756-.135 4.329-.232.202.097.373.193.515.289.141.097.261.184.363.261-1.494 3.877-3.124 7.759-4.89 11.646-1.766 3.888-3.689 7.808-5.767 11.763-.505.945-.323 1.418.545 1.418h5.45c.545 0 .918-.298 1.12-.897 1.957-5.015 3.87-9.674 5.737-13.976 1.866-4.301 3.718-8.294 5.555-11.979.08-.173.121-.53.121-1.07.002-.928-.392-1.381-1.179-1.362m-30.215.434c0-.521-.262-.781-.787-.781h-5.147c-.626 0-.939.261-.939.781v15.741c0 .599.273.897.818.897.262 0 .565-.116.908-.347l4.299-2.72c.565-.405.848-.858.848-1.36zm-28.762-.781c-1.393 0-3.674.116-6.842.347-1.594.097-2.987.174-4.178.232-1.191.057-2.19.087-2.997.087-2.362 0-4.557-.057-6.585-.173-2.028-.116-3.9-.28-5.615-.492-.324-.019-.576-.033-.757-.043-.182-.009-.303-.014-.364-.014-.544 0-.999.434-1.362 1.302l-.878 2.083c-.08.136-.12.29-.12.463 0 .483.332.724.999.724.443.039.908.068 1.393.087.484.019 1.009.028 1.574.028.727 0 1.625-.028 2.695-.087 1.07-.057 2.311-.135 3.724-.232 2.806-.232 4.925-.347 6.358-.347.444 0 .666.222.666.666v24.162c0 .559.232.839.696.839h5.45c.545 0 .818-.26.818-.781v-24.104c0-.366.05-.578.151-.636.101-.057.363-.087.787-.087.161 0 .363.005.606.014.242.01.534.024.878.043.343.02.631.034.863.044.232.009.419.014.56.014.625 0 1.261-.829 1.907-2.489.262-.482.394-.858.394-1.128-.003-.348-.276-.522-.821-.522m-37.662 3.27c-2.988-2.565-6.893-3.849-11.717-3.849-4.42 0-8.003.907-10.748 2.72-2.927 1.871-4.39 4.475-4.39 7.813 0 2.681 1.12 4.774 3.36 6.279 1.857 1.312 3.986 1.967 6.389 1.967.867 0 1.659-.11 2.376-.332.716-.222 1.266-.651 1.65-1.288l.666-1.187c.08-.135.121-.289.121-.462 0-.347-.162-.521-.484-.521-.102 0-.404.049-.908.145-.465.097-.807.145-1.03.145-1.776 0-3.119-.473-4.027-1.418-.908-.945-1.362-2.171-1.362-3.675 0-1.968.716-3.578 2.149-4.833 1.433-1.254 3.26-1.881 5.48-1.881 2.967 0 5.368.994 7.205 2.98 1.978 2.123 2.967 5.142 2.967 9.058v.347c0 7.716-3.744 11.574-11.232 11.574-4.36 0-8.073-1.225-11.142-3.675-.222-.153-.434-.232-.636-.232-.323 0-.484.194-.484.579 0 .077.005.159.015.246.01.088.025.179.045.276l.878 2.806c.12.521.363.936.726 1.244.061.02.373.193.938.521 2.099 1.196 5.712 1.794 10.839 1.794 4.844 0 8.86-1.331 12.049-3.993 3.371-2.874 5.056-6.703 5.056-11.487.004-5.035-1.581-8.922-4.749-11.661m-31.79 23.698c-.02-.308-.035-.573-.045-.795-.01-.221-.015-.409-.015-.565v-15.307c0-3.337-.919-5.922-2.755-7.755-1.817-1.852-4.208-2.778-7.175-2.778-1.756 0-3.017.213-3.784.637-.222.135-.444.313-.666.535-.223.222-.435.497-.637.825l-.938 1.505c-.242.328-.363.656-.363.984 0 .482.221.723.666.723.202 0 .414-.076.636-.232.929-.868 2.069-1.302 3.421-1.302.444 0 .878.058 1.302.174 2.099.559 3.149 2.517 3.149 5.874v15.451.29c0 .482-.252.723-.757.723-.283 0-.666-.019-1.15-.057s-1.071-.096-1.756-.174c-.687-.076-1.287-.135-1.802-.173-.514-.039-.943-.058-1.287-.058-1.292 0-2.225.069-2.8.203s-.863.337-.863.607c0 .058.005.116.015.174.009.057.025.125.045.202l1.12 2.286c.323.636.676.955 1.059.955.787 0 1.968-.088 3.542-.261 1.594-.174 2.805-.261 3.633-.261.403 0 .893.015 1.468.043.576.029 1.247.063 2.014.102.766.039 1.433.072 1.998.102.565.028 1.04.043 1.423.043.867 0 1.301-.454 1.301-1.36v-1.36zm-44.141-13.744c0-.559-.242-.839-.726-.839-.121 0-.374.077-.757.232l-4.329 2.025c-.626.251-.938.781-.938 1.592v12.616c0 .521.272.781.817.781h5.086c.565 0 .848-.26.848-.781v-15.626zm22.192.115c0-4.668-1.544-8.208-4.632-10.619-2.948-2.296-7.005-3.443-12.171-3.443-3.774 0-7.346.675-10.717 2.025-.727.232-1.222.821-1.483 1.766l-1.06 2.864c-.081.232-.121.425-.121.579 0 .405.161.607.484.607.221 0 .414-.077.575-.232 3.512-2.662 7.205-3.993 11.081-3.993 3.592 0 6.342.897 8.249 2.691 1.908 1.794 2.861 4.359 2.861 7.697v15.278c0 .714.273 1.07.817 1.07h5.086c.686 0 1.03-.357 1.03-1.07v-15.22z" fill="#006d32"/></svg>