<svg id="Layer_1" enable-background="new 0 0 240.3 87.8" viewBox="0 0 240.3 87.8" xmlns="http://www.w3.org/2000/svg"><path d="m188.9 46.8c.1-.1.2-.1.3-.2 4.3-2.4 10.7.3 14.2 3.9l0 0c0 0 0-.1 0-.1-1.9-4.1-9.2-8.2-13.8-5.7-.3.2-.6.4-.8.6-.3-3.3 0-6.7.8-9.9-.6 1-1.1 2.2-1.4 3.5-3.3 12.9 4.2 27.5 14.9 38.2-3.7-2.4-9.9-3.4-13-.4-1 .9-1.2 2.2-.7 3.2.2-.4.5-.9.9-1.3 3.5-3.3 10.1-2.5 14.5-.1 2.9 2.7 6 5.2 9.2 7.2-12.7-9.7-23.3-24.4-25.1-38.9z" fill="#43ad49"/><path d="m186 39.5c-.1.4-.3.8-.4 1.3-.1 0-.2-.2-.3-.2-3-10.8-3.8-26 6.7-35.4 7.1-6.4 15.9-1.6 24.2-2.5-3.4 1.1-6.7 2.4-9.9 3.8-3.2 1.5-6.6 3.1-9.1 5.7-2.4 2.5-3.9 6-5.3 9.1-1.8 4.2-3.3 8.6-4.6 13-.4 1.7-.9 3.5-1.3 5.2zm11.2-25.8c-2.5 2.4-4 5.7-5.4 8.7-1.6 3.7-3 7.6-4.2 11.5-.4 1.4-.8 2.7-1.2 4.1-.1.5-.4 1.3-.4 1.8 0 0 0 .1 0 .1 2.4-7.4 6-14.1 13.3-17.6 3.6-1.8 7.2-2.5 11-4 6.1-2.5 8.2-9.9 11-15.4-5 1.3-9.9 3-14.7 5.1-3.2 1.5-6.8 3.1-9.4 5.7z" fill="#eb5a2d"/><path d="m215.6 68.1c.7-.4 1.5-.9 2.2-1.4-.1.1-.2.2-.3.3-2 1.9-2.6 5.1-5.7 5.6-4.4.7-8-2.4-10.1-5.4.2.1.5.2.8.4.8.4 1.7.7 2.5 1 1.7.7 3.6 1.4 5.5 1.4 1.7.1 3.6-1 5.1-1.9zm-3.4-2.8c-1.2.6-2.1 1.4-3.3 1.9-1.6.8-3.3.8-4.9.4.4.1.7.3 1.1.4 1.7.6 3.7 1.4 5.5 1.4 1.8-.1 3.6-1.1 5.1-2 .9-.5 1.9-1.1 2.7-1.7-1.9-.3-4.3-1.4-6.2-.4z" fill="#eb5a2d"/><path d="m222.4 26.3c.6 3.2 2.6 5.8 4.6 8.3 2.5 3.1 5.3 6 8.2 8.8 1.2 1.2 2.4 2.3 3.7 3.4.3.2.6.5.9.7 0 0 0 0 0 0 .1 0 .2.1.3.2.1-.1.2-.1.2-.3-5.4-5-9.7-10.7-9.7-18.3 0-3.6.8-6.8 1-10.5.3-5.7-4.5-10.2-7.8-14.5-.7 3.7-1.2 7.4-1.5 11.2-.3 3.7-.6 7.5.1 11z" fill="#43ad49"/><path d="m239.5 47.4c-.2-.1-.4-.3-.5-.4-1.1-.9-2.1-1.8-3.2-2.8-3.3-3-6.4-6.2-9.3-9.5-2.1-2.5-4.5-5.2-5.4-8.4-.9-3.3-.8-7-.5-10.4.2-3.4.6-6.8 1.2-10.1-.2.6-.3 1.3-.5 1.9-2.4 7.2-9.9 12.5-7.5 21 3.5 12.3 16.2 17.6 26.2 19.4 0 0 0 0 .1 0-.4-.5-.7-.7-.6-.7z" fill="#43ad49"/><path d="m0 58.1v-13.8c1.3-.2 2.8-.3 4.7-.3 3.6 0 5.4 1.3 5.4 3.8v10.3zm8.3-1.4v-8.6c0-.5-.1-.8-.2-1.2-.1-.3-.3-.6-.6-.7-.2-.2-.5-.3-.8-.4-.4-.1-.7-.2-1-.2-.3 0-.7 0-1.1 0-.9 0-1.7 0-2.4.1h-.4v11z" fill="#006d32"/><path d="m15.2 58.1h-1.8v-13.8h1.8z" fill="#006d32"/><path d="m25.6 57.7v.4h-1.8v-.4c0-.5.1-1.2.4-2.1.2-.9.4-1.5.5-1.9.2-.8.5-1.7.8-2.8l1.5-5.2h-8.4v-1.4h10.2v1.4l-1.6 5.5c-.2.7-.3 1.2-.5 1.6-.1.4-.2.9-.4 1.3-.1.4-.2.8-.3 1.1-.1.3-.2.7-.2 1-.1.7-.2 1.2-.2 1.5zm-5.1 5.7h-1.8v-13.6h1.8z" fill="#006d32"/><path d="m37 44.1c1.4 0 2.4.4 3 1.2.7.8 1 1.9 1 3.4v9.4h-4.7v-1.4h2.9v-8c0-2.1-1-3.2-2.9-3.2-.3 0-.7.1-1 .2-.3.1-.6.3-.8.4-.5.4-.8.7-1 .9l-.1.2-1 10.8h-1.8l1-10.6c0 0 0-.1 0-.2s0-.5-.1-1c-.1-.5-.2-1-.4-1.3l-.3-.7h1.8c.2.3.4.8.5 1.5h.1c.4-.4.8-.8 1.3-1.1.3-.1.6-.3 1.1-.4.4-.1.9-.1 1.4-.1z" fill="#006d32"/><path d="m50.9 44.3h7.3v1.4l-1.9 7.1-1.1 5.4h-1.8l1.1-5.4 1.9-7.1h-7.3v-4.2h1.8z" fill="#006d32"/><path d="m60.9 44.2c.5-.1 1.1-.1 1.7-.1.6 0 1.2.1 1.7.2.5.1.9.3 1.3.6.4.2.7.5.9.9.3.3.5.7.7 1 .2.4.3.7.4 1.1.2.7.3 1.4.3 2.1v2.3c0 .4 0 .9-.1 1.4s-.2.9-.3 1.3-.3.7-.6 1.2c-.3.4-.6.8-.9 1.1-.4.3-.8.5-1.4.7-.6.2-1.2.3-1.9.3-.7 0-1.2 0-1.7-.1-.5-.1-.8-.1-1.1-.2l-.3-.1v-1.6c.9.3 2 .5 3.1.5.4 0 .8-.1 1.2-.2.4-.1.6-.3.9-.5.2-.2.4-.4.6-.7.2-.3.3-.5.4-.8.1-.3.2-.5.2-.8.1-.5.1-.9.1-1.4v-2.1c0-.9-.1-1.7-.3-2.3-.1-.3-.2-.5-.4-.8-.2-.3-.4-.5-.6-.7-.2-.2-.5-.4-.9-.5-.4-.1-.8-.2-1.4-.2-.5 0-1 0-1.5.1-.5.1-.9.2-1.1.3l-.3.1v-1.6c.1 0 .2-.1.3-.2.1-.1.4-.2 1-.3z" fill="#006d32"/><path d="m71.3 44.3h7.3v1.4l-1.9 7.1-1.1 5.4h-1.8l1.1-5.4 1.9-7.1h-7.3v-4.2h1.8z" fill="#006d32"/><path d="m88.5 44.3l1.6 6.2c.2.9.6 2.8 1.3 5.7 2.1-.8 3.3-2.8 3.6-5.9l.5-6h1.8l-.5 6c-.1.9-.2 1.7-.4 2.4-.2.7-.4 1.2-.6 1.6-.2.4-.5.8-.9 1.3-.4.4-.8.8-1.2 1.1-.5.3-1 .6-1.7.9-.7.3-1.4.4-2.3.6l-4 .6v-1.4l4.2-.7-3.2-12.3h1.8z" fill="#006d32"/><path d="m100 53.4v-9.2h1.8v7.3l-1.4 1.8h-.4z" fill="#006d32"/><path d="m106.8 45.5c-.4 0-.8.1-1.3.2v-1.4c.6-.2 1.2-.2 1.9-.2 2.2 0 3.3 1.2 3.3 3.7v10.4h-1.5l-.2-2.3h0c0 .1-.1.2-.3.5-.1.2-.3.4-.4.6-.1.2-.3.3-.5.5-.2.2-.4.4-.6.5-.2.1-.5.3-.8.4-.3.1-.6.1-.9.1-.7 0-1.2 0-1.5-.1l.3-1.6c.3.1.8.1 1.5.1.5 0 1-.2 1.6-.6.7-.5 1.2-1.2 1.4-2 .2-.5.2-1 .2-1.6v-4.5c0-.9-.2-1.5-.6-1.9-.3-.6-.8-.8-1.6-.8z" fill="#006d32"/><path d="m119.9 44.1c1.3 0 2.4.4 3 1.2.7.8 1 1.9 1 3.4v9.4h-4.7v-1.4h2.9v-8c0-2.1-1-3.2-2.9-3.2-.3 0-.7.1-1 .2-.3.1-.6.3-.8.4-.5.4-.8.7-1 .9l-.1.2-1 10.8h-1.8l1-10.6c0 0 0-.1 0-.2s0-.5-.2-1c-.1-.5-.2-1-.4-1.3l-.3-.7h1.8c.2.3.4.8.5 1.5h.1c.4-.4.8-.8 1.3-1.1.3-.1.6-.3 1.1-.4.6-.1 1-.1 1.5-.1z" fill="#006d32"/><path d="m132.7 56.7c1.5 0 2.7-.5 3.6-1.6 1-1 1.6-2.7 1.8-4.8l.5-6h1.8l-.5 6c-.1.9-.2 1.8-.4 2.5-.2.7-.5 1.3-.7 1.8-.2.5-.5.9-.9 1.4-.4.4-.8.8-1.3 1.1-.5.3-1.1.6-1.8.8-.7.2-1.5.3-2.3.3h-4.6l-1.1-13.8h1.8l.6 7.7 1.4-.5c1.1-.4 1.7-1.4 1.9-3l .4-4.3h1.8l-.4 3.6c0 .5-.1.9-.2 1.3-.1.4-.2.8-.4 1.2-.2.4-.4.8-.6 1.1-.3.3-.6.6-1 .9-.4.3-.9.5-1.4.6l-1.4.4.3 3.3z" fill="#006d32"/><path d="m148.7 53.4v-9.2h1.8v7.3l-1.4 1.8h-.4z" fill="#006d32"/><path d="m152.9 49c0-.8.2-1.5.5-2.1.3-.6.7-1.2 1.2-1.6s1.1-.7 1.7-.9c.6-.2 1.2-.3 1.8-.3.6 0 1.2.1 1.7.3s1 .4 1.5.8c.5.4.8.8 1.2 1.4.3.5.6 1.2.8 2 .2.8.3 1.7.3 2.7 0 1-.1 1.9-.3 2.7-.2.8-.4 1.5-.8 2-.3.5-.7 1-1.2 1.4-.9.7-1.9 1.1-3.2 1.1-1.2 0-2.4-.1-3.5-.2l-.5-.1v-1.5c0 0 .2 0 .5.1 1.1.2 2.3.2 3.5.2.5 0 1-.1 1.4-.3.4-.2.8-.5 1-.8.3-.3.5-.8.6-1.3.3-.9.4-1.9.4-3.2 0-1.6-.2-2.8-.7-3.9-.3-.6-.6-1-1.1-1.3-.5-.3-1-.5-1.6-.5-.6 0-1.1.1-1.5.2-.4.1-.8.3-1 .6-.3.2-.5.5-.6.8-.3.6-.5 1.2-.5 1.9 0 1 .2 1.7.6 2.2.4.5 1.1.8 2.1 1l .5.1-.3 1.3-.4-.1c-1.2-.2-2.2-.6-3-1.4-.7-1-1.1-2-1.1-3.3z" fill="#006d32"/><path d="m168 58.1h-1.8v-13.8h1.8z" fill="#006d32"/><path d="m171.3 53.4v-9.2h1.8v7.3l-1.4 1.8h-.4z" fill="#006d32"/><path d="m173.1 10.6c0-.4-.2-.7-.7-.7h-4.3c-.4 0-.5.3-.5.8v7.9c0 5.8-2.2 9.5-6.6 11.1-.2.1-.3-.1-.5-.7l-5.2-18.4c-.1-.4-.2-.6-.3-.7-.1-.1-.3-.1-.8-.1h-4.4c-.5 0-.7.1-.7.4 0 .2 0 .4.1.6l7 19.7c.1.4.1.6 0 .7-.7.3-1.5.6-2.6.8-1 .2-2.2.4-3.6.5-.7.1-1.1.2-1.1.4 0 .2 0 .4.1.5l1.1 1.9c.2.3.5.5.8.5 1.2 0 3.4-.7 6.8-2 3.1-1.2 5.2-2.2 6.4-3 2.9-1.9 5-4 6.4-6.3 1.6-2.7 2.4-5.9 2.4-9.6v-4.3zm-28.2-.4c-3.5.1-6 .2-7.6.2-1.6 0-2.2.1-1.9.1-1.3 0-2.5 0-3.4-.1-1 0-1.7-.1-2.3-.2-.3-.1-.5-.2-.5-.5v-8.9c0-.5-.3-.8-.9-.8-.2 0-.3 0-.4.1l-3.2 2.1c-.5.4-.7.8-.7 1.2v8.9c0 .6.3.9.8 1 .9.1 2 .2 3.2.2 1.3 0 2.8.1 4.5.1.9 0 1.8 0 2.9-.1 1.1 0 2.2-.1 3.5-.2.2.1.3.2.4.2.1.1.2.1.3.2-1.2 3.1-2.5 6.2-3.9 9.3-1.4 3.1-3 6.3-4.6 9.4-.4.8-.3 1.1.4 1.1h4.4c.4 0 .7-.2.9-.7 1.6-4 3.1-7.8 4.6-11.2 1.5-3.5 3-6.7 4.5-9.6.1-.1.1-.4.1-.9-.1-.5-.4-.9-1.1-.9m-24.2.4c0-.4-.2-.6-.6-.6h-4.1c-.5 0-.8.2-.8.6v12.6c0 .5.2.7.7.7.2 0 .5-.1.7-.3l3.5-2.2c.5-.3.7-.7.7-1.1v-9.7zm-23.1-.7c-1.1 0-2.9.1-5.5.3-1.3.1-2.4.1-3.4.2-1 0-1.8.1-2.4.1-1.9 0-3.7 0-5.3-.1-1.6-.1-3.1-.2-4.5-.4-.3 0-.5 0-.6 0-.1 0-.2 0-.3 0-.4 0-.8.3-1.1 1l-.7 1.7c-.1.1-.1.2-.1.4 0 .4.3.6.8.6.4 0 .7.1 1.1.1s.8 0 1.3 0c .6 0 1.3 0 2.2-.1.9 0 1.9-.1 3-.2 2.3-.2 4-.3 5.1-.3.4 0 .5.2.5.5v19.4c0 .4.2.7.6.7h4.4c.4 0 .7-.2.7-.6v-19.4c0-.3 0-.5.1-.5.1 0 .3-.1.6-.1.1 0 .3 0 .5 0 .2 0 .4 0 .7 0 .3 0 .5 0 .7 0 .2 0 .3 0 .4 0 .5 0 1-.7 1.5-2 .2-.4.3-.7.3-.9.1-.2-.2-.4-.6-.4m-30.2 2.7c-2.4-2.1-5.6-3.1-9.4-3.1-3.5 0-6.4.7-8.6 2.2-2.3 1.5-3.5 3.6-3.5 6.3 0 2.2.9 3.8 2.7 5 1.5 1.1 3.2 1.6 5.1 1.6.7 0 1.3-.1 1.9-.3.6-.2 1-.5 1.3-1l .5-1c .1-.1.1-.2.1-.4 0-.3-.1-.4-.4-.4-.1 0-.3 0-.7.1-.4.1-.6.1-.8.1-1.4 0-2.5-.4-3.2-1.1-.7-.8-1.1-1.7-1.1-3 0-1.6.6-2.9 1.7-3.9 1.2-1 2.6-1.5 4.4-1.5 2.4 0 4.3.8 5.8 2.4 1.6 1.7 2.4 4.1 2.4 7.3v.3c0 6.2-3 9.3-9 9.3-3.5 0-6.5-1-8.9-3-.2-.1-.3-.2-.5-.2-.3 0-.4.2-.4.5 0 .1 0 .1 0 .2 0 .1 0 .1 0 .2l.7 2.3c.1.4.3.8.6 1 0 0 .3.2.8.4 1.7 1 4.6 1.4 8.7 1.4 3.9 0 7.1-1.1 9.7-3.2 2.7-2.3 4.1-5.4 4.1-9.2-.2-4-1.5-7.1-4-9.3m-25.5 19c0-.2 0-.5 0-.6 0-.2 0-.3 0-.5v-12.3c0-2.7-.7-4.8-2.2-6.2-1.5-1.5-3.4-2.2-5.8-2.2-1.4 0-2.4.2-3 .5-.2.1-.4.3-.5.4-.2.2-.3.4-.5.7l-.9 1.2c-.2.3-.3.5-.3.8 0 .4.2.6.5.6.2 0 .3-.1.5-.2.7-.7 1.7-1 2.7-1 .4 0 .7 0 1 .1 1.7.4 2.5 2 2.5 4.7v12.4.2c0 .4-.2.6-.6.6-.2 0-.5 0-.9 0-.4 0-.9-.1-1.4-.1-.6-.1-1-.1-1.4-.1-.4 0-.8 0-1 0-1 0-1.8.1-2.2.2-.5.1-.7.3-.7.5 0 0 0 .1 0 .1 0 0 0 .1 0 .2l.9 1.8c.3.5.5.8.9.8.6 0 1.6-.1 2.8-.2 1.3-.1 2.3-.2 2.9-.2.3 0 .7 0 1.2 0 .5 0 1 .1 1.6.1.6 0 1.2.1 1.6.1.5 0 .8 0 1.1 0 .7 0 1-.4 1-1.1v-1.3zm-35.5-11c0-.4-.2-.7-.6-.7-.1 0-.3.1-.6.2l-3.5 1.6c-.5.2-.7.6-.7 1.3v10.1c0 .4.2.6.7.6h4.1c.5 0 .7-.2.7-.6v-12.5zm17.8.1c0-3.7-1.2-6.6-3.7-8.5-2.4-1.8-5.6-2.8-9.8-2.8-3 0-5.9.5-8.6 1.6-.6.2-1 .7-1.2 1.4l-.9 2.3c0 .2 0 .3 0 .5 0 .3.1.5.4.5.2 0 .3-.1.5-.2 2.8-2.1 5.8-3.2 8.9-3.2 2.9 0 5.1.7 6.6 2.2 1.5 1.4 2.3 3.5 2.3 6.2v12.3c0 .6.2.9.7.9h4.1c.6 0 .8-.3.8-.9v-12.3z" fill="#006d32"/><path d="m170.1 87.8h-167.1c-1.7 0-3-1.3-3-3v-15.1c0-1.7 1.3-3 3-3h167.1c1.7 0 3 1.3 3 3v15.1c0 1.6-1.4 3-3 3z" fill="#006d32"/><path d="m15.1 80.6c.7 0 1.2-.1 1.6-.4.4-.3.6-.7.6-1.1 0-.3-.1-.6-.2-.8-.1-.2-.3-.4-.6-.6-.3-.2-.8-.4-1.4-.6-.9-.3-1.5-.7-1.9-1.1-.4-.4-.6-1-.6-1.7s.3-1.3.8-1.7c.5-.4 1.3-.6 2.2-.6.9 0 1.7.2 2.5.5l-.3.9c-.8-.3-1.5-.4-2.3-.4-.6 0-1 .1-1.3.4s-.5.6-.5 1c0 .3.1.6.2.8s.3.4.6.6.7.4 1.3.6c1 .4 1.7.7 2 1.1s.5.9.5 1.5c0 .8-.3 1.4-.9 1.9-.6.5-1.4.7-2.5.7s-1.9-.1-2.5-.4v-1c .9.2 1.8.4 2.7.4z" fill="#fff"/><path d="m23.9 72.6c0-.2.1-.4.2-.5.1-.1.3-.2.4-.2s.3.1.5.2.2.3.2.5c0 .2-.1.4-.2.5-.1.1-.3.2-.5.2s-.3-.1-.4-.2c-.2-.1-.2-.3-.2-.5zm1.1 8.8h-1v-6.9h1z" fill="#fff"/><path d="m34.4 74.3c.8 0 1.5.2 1.9.6.4.4.6 1.1.6 1.9v4.5h-1.1v-4.5c0-.6-.1-1-.4-1.3-.3-.3-.7-.4-1.2-.4-.7 0-1.3.2-1.6.6-.3.4-.5 1-.5 1.9v3.6h-1.1v-6.9h1l .2 1h .1c.2-.3.5-.6.9-.8.3-.1.7-.2 1.2-.2z" fill="#fff"/><path d="m45.8 81.5c-1 0-1.8-.3-2.3-.9-.5-.6-.8-1.5-.8-2.6 0-1.1.3-2 .8-2.7.6-.6 1.4-1 2.4-1 .3 0 .6 0 1 .1.3.1.6.2.8.3l-.3.9c-.2-.1-.5-.2-.7-.2-.3-.1-.5-.1-.7-.1-1.4 0-2.1.9-2.1 2.7 0 .9.2 1.5.5 2s .9.7 1.5.7c.6 0 1.2-.1 1.8-.4v.9c-.6.2-1.2.3-1.9.3z" fill="#fff"/><path d="m56 81.5c-1 0-1.8-.3-2.4-.9-.6-.6-.9-1.5-.9-2.6s.3-2 .8-2.7c.6-.7 1.3-1 2.2-1s1.6.3 2.1.9c.5.6.8 1.3.8 2.3v.7h-4.8c0 .8.2 1.4.6 1.9.4.4.9.6 1.7.6s1.5-.2 2.2-.5v.9c-.4.2-.7.3-1.1.3-.3.1-.7.1-1.2.1zm1.4-4.2c0-.7-.1-1.2-.4-1.5-.3-.4-.7-.5-1.3-.5-.6 0-1 .2-1.3.5-.3.4-.5.9-.6 1.5z" fill="#fff"/><path d="m74.9 81.4h-1v-6.6c0-.5 0-1 .1-1.6-.1.1-.2.2-.3.2s-.6.5-1.5 1.3l-.6-.7 2.5-1.9h.9v9.3z" fill="#fff"/><path d="m85.1 77.9c-.8 0-1.5-.2-2-.7-.5-.5-.7-1.2-.7-2 0-1 .3-1.7.8-2.3.5-.6 1.2-.8 2.1-.8 0 0 0 0 .1 0 .9 0 1.7.4 2.2 1.1.6.7.8 1.7.8 2.9 0 0 0 0 0 .1 0 3.6-1.4 5.4-4.2 5.4-.5 0-.9 0-1.2-.1v-.9c.3.1.7.2 1.2.2 1 0 1.8-.3 2.3-.9.5-.6.8-1.6.8-2.9h-.1c-.2.4-.5.6-.9.8-.3 0-.8.1-1.2.1zm-1.2-4.4c-.3.4-.5.9-.5 1.6s.2 1.2.5 1.5c.3.3.8.5 1.4.5 0 0 .1 0 .1 0 .5 0 1-.2 1.4-.5.4-.3.6-.7.6-1.2 0 0 0 0 0 0 0-.4-.1-.8-.3-1.2s-.4-.7-.7-.9c-.3-.2-.7-.3-1-.3 0 0 0 0 0 0-.7-.1-1.2.1-1.5.5z" fill="#fff"/><path d="m94 74.2c0-.7.2-1.2.7-1.6.5-.4 1.2-.6 2-.6s1.5.2 2 .6c.5.4.7.9.7 1.6 0 .5-.1.9-.4 1.3-.3.4-.7.7-1.4 1 .8.4 1.3.7 1.6 1.1.3.4.5.8.5 1.4 0 .8-.3 1.4-.8 1.8-.5.5-1.3.7-2.2.7-1 0-1.7-.2-2.2-.6-.5-.4-.8-1-.8-1.8 0-1.1.6-1.9 1.9-2.5-.6-.3-1-.7-1.2-1.1s-.4-.8-.4-1.3zm1.1 3.7c-.3.3-.4.7-.4 1.2s.2.9.5 1.1.8.4 1.5.4 1.1-.1 1.5-.4c.4-.3.5-.7.5-1.2 0-.4-.2-.8-.5-1.1-.3-.3-.9-.6-1.7-.9-.6.3-1.1.6-1.4.9zm2.9-4.7c-.3-.3-.7-.4-1.3-.4-.5 0-1 .1-1.2.4-.3.3-.4.6-.4 1s .1.7.4 1c .2.3.7.6 1.4.8.6-.3 1-.5 1.3-.8.2-.3.4-.6.4-1-.2-.4-.3-.7-.6-1z" fill="#fff"/><path d="m107.7 77.9c-.8 0-1.5-.2-2-.7-.5-.5-.7-1.2-.7-2 0-1 .3-1.7.8-2.3.5-.6 1.2-.8 2.1-.8 0 0 0 0 .1 0 .9 0 1.7.4 2.2 1.1.6.7.8 1.7.8 2.9 0 0 0 0 0 .1 0 3.6-1.4 5.4-4.2 5.4-.5 0-.9 0-1.2-.1v-.9c.3.1.7.2 1.2.2 1 0 1.8-.3 2.3-.9.5-.6.8-1.6.8-2.9h-.1c-.2.4-.5.6-.9.8-.3 0-.7.1-1.2.1zm-1.2-4.4c-.3.4-.5.9-.5 1.6s.2 1.2.5 1.5c.3.3.8.5 1.4.5 0 0 .1 0 .1 0 .5 0 1-.2 1.4-.5.4-.3.6-.7.6-1.2 0 0 0 0 0 0 0-.4-.1-.8-.3-1.2s-.4-.7-.7-.9c-.3-.2-.7-.3-1-.3 0 0 0 0 0 0-.7-.1-1.1.1-1.5.5z" fill="#fff"/><path d="m133.1 73.2v.7c-.9.2-1.3.9-1.3 1.8v5.6h-1.1v-5.6c0-.2 0-.5.1-.7.1-.2.1-.4.2-.5.2-.2.3-.4.5-.5h.1v0h-4.5v-.8z" fill="#fff"/><path d="m141 73.1c1 0 1.8.3 2.3 1 .6.7.9 1.8.9 3.2 0 .6-.1 1.1-.2 1.6-.1.5-.3.9-.5 1.2s-.4.6-.7.8c-.3.2-.6.4-.9.5s-.6.2-1 .2c-.4 0-.7-.1-1-.2s-.6-.3-.9-.5c-.3-.2-.5-.5-.7-.8s-.3-.7-.5-1.2c-.1-.5-.2-1-.2-1.6 0-.8.1-1.5.3-2s .4-1 .7-1.3h-.8v-.9c1.1 0 2.1 0 3.2 0zm-1.8 2.4c-.2.6-.2 1.2-.2 1.7s0 1 .1 1.4.2.7.3 1.1.4.6.7.8c.3.2.6.3 1 .3.4 0 .7-.1 1-.3.3-.2.5-.4.7-.8.3-.6.4-1.4.4-2.3 0-1.2-.2-2.1-.6-2.6-.2-.2-.4-.4-.6-.5-.3-.1-.5-.2-.9-.2h-1.1c-.4.3-.7.7-.8 1.4z" fill="#fff"/><path d="m150.8 81.4h-1.1v-8.2h1.1z" fill="#fff"/><path d="m157.9 73.9c-.2 0-.5 0-.8.1v-.8c.3-.1.7-.1 1.1-.1 1.3 0 2 .7 2 2.2v4.1c0 .3 0 .7-.1 1 0 .3-.1.6-.1.7l-.1.2h-3.8v-.8h2.8c.1-.3.1-.7.1-1.2v-4c0-.5-.1-.9-.3-1.1 0-.2-.3-.3-.8-.3z" fill="#fff"/></svg>