<?xml version="1.0" encoding="utf-8"?>
<!-- Generator: Adobe Illustrator 19.2.1, SVG Export Plug-In . SVG Version: 6.00 Build 0)  -->
<svg version="1.1" id="Layer_1" xmlns="http://www.w3.org/2000/svg" xmlns:xlink="http://www.w3.org/1999/xlink" x="0px" y="0px"
	 viewBox="0 0 47 47" style="enable-background:new 0 0 47 47;" xml:space="preserve">
<style type="text/css">
	.st0{fill:#FFFFFF;}
</style>
<path class="st0" d="M23.5,0C10.5,0,0,10.5,0,23.5C0,36.5,10.5,47,23.5,47C36.5,47,47,36.5,47,23.5C47,10.5,36.5,0,23.5,0z M38,32.7
	c-1.1,3.7-3.9,6.1-8.2,5.6c-1.4-0.1-7.7-1.4-13.6-7.3c-5.9-5.8-7-12.1-7.1-13.4c-0.4-4.2,1.4-7.5,4.9-8.7c1-0.4,2.2,0.2,2.6,1.2
	l1.9,4c0.4,0.8,0.2,1.8-0.4,2.4l-2.9,2.9c0,0,0.1,2.3,4.7,6.9c4.6,4.6,6.9,4.7,6.9,4.7l2.8-2.8c0.7-0.7,1.6-0.8,2.5-0.4l4.7,2.4
	C37.8,30.6,38.3,31.7,38,32.7z"/>
</svg>
