<svg id="Layer_1" enable-background="new 0 0 47 47" viewBox="0 0 47 47" xmlns="http://www.w3.org/2000/svg"><path d="m23.5 0c-13 0-23.5 10.5-23.5 23.5 0 13 10.5 23.5 23.5 23.5 13 0 23.5-10.5 23.5-23.5 0-13-10.5-23.5-23.5-23.5zm14.5 32.7c-1.1 3.7-3.9 6.1-8.2 5.6-1.4-.1-7.7-1.4-13.6-7.3-5.9-5.8-7-12.1-7.1-13.4-.4-4.2 1.4-7.5 4.9-8.7 1-.4 2.2.2 2.6 1.2l1.9 4c .4.8.2 1.8-.4 2.4l-2.9 2.9c0 0 .1 2.3 4.7 6.9 4.6 4.6 6.9 4.7 6.9 4.7l2.8-2.8c.7-.7 1.6-.8 2.5-.4l4.7 2.4c1 .4 1.5 1.5 1.2 2.5z" fill="#fff"/></svg>