<svg style="display:none;" height="0" width="0" xmlns="http://www.w3.org/2000/svg"><defs><symbol id="speaker" viewBox="0 0 1426 1024"><path d="m574.331 308.48l-94.136 30.73c-17.92 5.837-32.563 26.03-32.563 44.872v87.951c0 18.831 14.643 39.025 32.563 44.872l94.136 30.72v308.47h30.822v-856.095h-30.822zm460.093 492.831l-53.842 156.15c0 0-18.729 48.169 36.116 59.372 15.288 3.123 26.9 4.874 35.195 6.656 17.828 3.83 27.965-15.329 27.965-15.329l202.65-378.184h-189l-59.085 171.336zm-395.028-801.311h-6.205v856.105h6.205c0 0 149.289-271.452 404.081-273.9v-308.316c-254.802-2.427-404.081-273.889-404.081-273.889zm786.463 428.052c0-90.266-55.357-141.21-80.466-141.21v282.685c27.976.01 80.466-51.149 80.466-141.476zm-349.287-167.905h235.715v336.712h-235.715zm-900.372 428.452c11.94 12.421 11.94 12.421 11.94 12.421 14.52 12.319 14.858 33.27.748 46.602l-.399.41c-14.1 13.373-37.54 13.773-52.081.942 0 0-.983-.86-13.507-14.121-97.352-103.025-144.527-250.388-113.377-399.329 18.371-87.992 61.604-164.516 120.781-223.877 11.213-11.254 11.213-11.254 11.213-11.254 13.271-11.315 35.543-9.595 49.521 3.85l.471.44c13.967 13.455 15.432 32.635 3.246 42.65 0 0 0 0-10.301 10.056-51.958 50.504-89.969 116.429-105.902 192.563-26.44 126.556 14.203 251.75 97.649 338.647zm104.857-94.505c11.418 11.397 11.418 11.397 11.418 11.397 14.408 10.598 14.725 30.157.635 43.489l-1.085.983c-14.08 13.373-37.939 14.275-53.033 2.089 0 0-1.782-1.475-14.541-15.063-66.099-70.543-98.079-171.039-76.831-272.609 12.605-60.293 42.22-112.732 82.749-153.385 11.807-11.848 11.807-11.848 11.807-11.848 14.408-11.305 37.642-9.554 51.62 3.891l1.116 1.034c13.967 13.466 13.773 32.799-.502 42.967 0 0 0 0-11.418 11.121-32.543 31.652-56.351 72.94-66.314 120.627-16.896 80.835 9.953 160.809 64.379 215.306zm116.665-44.165c-24.033 25.426-56.228 5.151-68.567-7.537-37.048-38.072-55.112-93.215-43.428-149.146 6.902-32.973 23.194-61.553 45.466-83.569 12.349-12.216 46.418-29.716 67.461-5.796 14.5 16.517 0 40.417-12.38 50.913-15.565 13.158-27.013 31.427-31.488 52.879-7.762 37.151 7.404 73.841 35.85 95.324 10.844 8.182 18.76 34.55 7.086 46.93z"/></symbol><symbol id="arrow" viewBox="0 0 559 1024"><path d="m512 1024c-11.909 0-23.828-4.547-32.911-13.64l-465.449-465.449c-18.186-18.176-18.186-47.647 0-65.823l465.449-465.449c18.166-18.186 47.657-18.186 65.823 0 18.186 18.176 18.186 47.647 0 65.823l-432.538 432.538 432.538 432.548c18.186 18.176 18.186 47.647 0 65.823-9.083 9.083-21.002 13.629-32.911 13.629z"/></symbol><symbol id="facebook" viewBox="0 0 1024 1024"><path d="m512 0c-282.778 0-512 229.233-512 512s229.222 512 512 512c282.767 0 512-229.233 512-512-.01-282.767-229.243-512-512-512zm136.172 503.511h-86.487c0 138.24 0 308.47 0 308.47h-128.246c0 0 0-168.561 0-308.47h-60.938v-108.964h60.938v-70.533c0-50.493 24.003-129.382 129.403-129.382l94.935.399v105.748c0 0-57.713 0-68.905 0-11.264 0-27.187 5.622-27.187 29.655v64.123h97.69z"/></symbol><symbol id="basket" viewBox="0 0 1092 1024"><path d="m984.74 477.891h-56.637l-253.184-379.863c4.485-9.062 7.485-18.944 7.485-29.737 0-37.755-30.525-68.291-68.25-68.291-37.693 0-68.229 30.536-68.229 68.291 0 37.734 30.536 68.26 68.229 68.26 1.403 0 2.591-.737 3.932-.799l228.035 342.139h-600.381l227.963-342.139c1.413.061 2.56.799 3.973.799 37.693 0 68.25-30.525 68.25-68.26 0-37.755-30.556-68.291-68.25-68.291-37.663 0-68.219 30.536-68.219 68.291 0 10.793 3.011 20.582 7.455 29.665l-253.194 379.935h-56.576c-80.476 0-125.471 62.536-100.035 138.854l126.915 307.62c25.405 76.38 112.067 99.635 192.481 99.635h438.784c80.445 0 167.066-23.255 192.604-99.645l126.812-307.62c25.508-76.308-19.61-138.844-99.963-138.844zm-711.772 375.449c0 18.883-15.268 34.15-34.109 34.15-18.883 0-34.14-15.268-34.14-34.15v-204.8c0-18.883 15.268-34.14 34.14-34.14 18.852 0 34.109 15.258 34.109 34.14zm204.708 0c0 18.883-15.268 34.15-34.109 34.15s-34.109-15.268-34.109-34.15v-204.8c0-18.883 15.258-34.14 34.109-34.14s34.109 15.258 34.109 34.14zm204.728 0c0 18.883-15.258 34.15-34.14 34.15-18.852 0-34.109-15.268-34.109-34.15v-204.8c0-18.883 15.258-34.14 34.109-34.14 18.883 0 34.14 15.258 34.14 34.14zm204.708 0c0 18.883-15.268 34.15-34.109 34.15-18.883 0-34.109-15.268-34.109-34.15v-204.8c0-18.883 15.237-34.14 34.109-34.14 18.852 0 34.109 15.258 34.109 34.14z"/></symbol><symbol id="location" viewBox="0 0 706 1024"><path d="m330.138 1008.241c5.325 5.99 10.394 9.82 15.309 12.534l.256.102 9.882 3.123 10.189-3.226c4.864-2.714 9.984-6.554 15.258-12.534 0 0 292.762-324.004 322.15-604.774 1.792-14.5 2.98-29.184 2.98-44.083 0-198.513-158.106-359.383-353.075-359.383-195.031 0-353.085 160.87-353.085 359.373 0 15.145 1.178 30.003 2.98 44.698 30.198 280.627 327.158 604.17 327.158 604.17zm22.947-880.036c125.235 0 227.123 103.741 227.123 231.178 0 127.386-101.888 231.117-227.123 231.117-125.184 0-227.123-103.721-227.123-231.117-.01-127.447 101.929-231.178 227.123-231.178z"/></symbol><symbol id="clock" viewBox="0 0 1024 1024"><path d="m512 0c-282.317 0-512 229.683-512 512 0 282.327 229.683 512 512 512s512-229.673 512-512c0-282.317-229.683-512-512-512zm0 940.595c-236.288 0-428.544-192.307-428.544-428.595s192.256-428.585 428.544-428.585c236.339 0 428.595 192.297 428.595 428.585s-192.256 428.595-428.595 428.595zm264.499-560.281c8.55 12.401 5.427 29.399-6.963 37.949l-247.142 170.752c-4.659 3.174-10.086 4.813-15.514 4.813-4.352 0-8.704-1.024-12.646-3.123-8.96-4.71-14.643-14.029-14.643-24.166v-365.425c0-15.053 12.237-27.29 27.29-27.29s27.29 12.237 27.29 27.29v313.446l204.39-141.21c12.39-8.489 29.389-5.376 37.939 6.963z"/></symbol><symbol id="phone" viewBox="0 0 790 1024"><path d="m0 0v793.958h248.371l146.381 230.042 146.33-230.042h248.474v-793.958h-789.555zm637.952 631.654v.061l-45.261 29.583c-29.03 19.866-152.627 41.779-319.59-163.738-160.973-198.042-113.971-307.046-92.109-332.134l37.581-38.912c8.858-7.424 22.118-6.4 29.645 2.662l97.792 117.565c7.168 8.602 6.81 22.016-2.662 29.952v.102l-43.776 31.386c-17.357 17.101-2.458 44.237 15.053 70.451l83.354 100.004c38.81 38.083 60.058 55.695 78.746 43.264l36.403-40.397c8.96-7.475 22.118-6.451 29.645 2.662l97.792 117.402v.154c7.168 8.581 6.758 21.955-2.611 29.932z"/></symbol><symbol id="globe" viewBox="0 0 1024 1024"><path d="m983.245 311.89c-80.364-189.471-265.533-311.89-471.736-311.89-67.348 0-133.212 13.199-195.717 39.188-123.771 50.227-224.614 151.194-276.664 277.094-52.818 127.724-52.142 268.247 1.915 395.643 80.466 189.594 266.148 312.074 473.119 312.074 138.793 0 268.8-55.47 366.08-156.252 142.991-148.081 183.429-366.295 103.004-555.858zm-68.291-3.779l-165.55 70.308c-26.296-57.201-57.078-110.019-91.576-157.225l139.827-59.341c49.152 39.987 88.586 89.149 117.299 146.258zm-442.368 187.802l-165.673 70.339c-22.518-58.266-38.984-118.794-47.759-175.79l142.899-60.652zm-14.96-189.686l143.084-60.744c35.052 45.988 66.345 98.591 93.102 156.529l-165.632 70.339zm38.553 245.299l70.492 166.093-143.053 60.774c-35.052-45.988-66.345-98.591-93.133-156.559l165.693-70.308zm55.552-23.613l165.642-70.339c22.548 58.388 38.984 118.917 47.759 175.79l-142.899 60.682-70.502-166.134zm187.003-406.651l-119.89 50.893c-30.843-35.564-76.892-81.009-131.656-111.299 89.139-5.028 176.456 16.916 251.546 60.406zm-178.616 75.827l-126.075 53.545-68.577-161.618c70.369-6.154 146.77 56.627 194.652 108.073zm-250.215-84.449l68.598 161.556-126.054 53.545c-2.396-47.022-1.843-163.901 57.457-215.101zm-104.806 68.116c-13.199 48.978-17.162 107.827-11.489 171.919l-119.859 50.954c21.023-85.309 67.103-163.389 131.348-222.874zm-142.93 293.366l139.643-59.279c10.025 57.569 26.665 116.388 49.521 174.991l-165.581 70.308c-20.961-60.129-28.918-122.665-23.583-186.02zm47.176 241.644l165.581-70.308c26.388 57.324 57.139 110.141 91.525 157.194l-139.796 59.341c-49.193-40.018-88.596-89.18-117.309-146.227zm176.21 186.818l119.89-50.893c30.843 35.564 76.861 81.009 131.686 111.299-85.443 4.813-173.312-15.094-251.576-60.406zm178.595-75.796l126.106-53.545 68.567 161.587c-70.42 6.124-146.708-56.412-194.673-108.042zm250.266 84.418l-68.567-161.587 125.993-53.484c2.437 46.991 1.853 163.871-57.426 215.071zm104.776-68.116c13.199-48.916 17.193-107.796 11.52-171.981l119.828-50.862c-21.053 85.279-67.133 163.359-131.348 222.843zm142.94-293.356l-139.612 59.31c-9.964-57.385-26.604-116.204-49.521-175.053l165.55-70.277c20.961 60.058 28.887 122.593 23.583 186.02z"/></symbol><symbol id="truck" viewBox="0 0 1767 1024"><path d="m471.239 700.721c45.278 0 86.599 16.561 118.437 43.77.045-1.21.209-2.315.209-3.435v-519.638c0-3.255-.299-6.616-.642-9.707v-44.965c0-19.742-18.099-35.706-40.335-35.706h-341.781c-22.266 0-47.891 0-60.63 37.259l-96.754 282.167c-29.792 17.681-49.743 50.206-49.743 87.196v192.148c0 56.135 45.487 101.622 101.652 101.622h194.373c22.579-75.623 92.408-130.712 175.214-130.712zm-351.981-277.119l64.109-212.144c0-15.62 14.291-28.239 31.883-28.239h295.906c17.562 0 31.853 12.604 31.853 28.239v212.144c0 15.531-14.291 28.15-31.853 28.15h-359.97c-17.681.015-31.928-12.604-31.928-28.15z"/><path d="m1334.496 698.929h174.467c-26.253-13.141-55.956-20.504-87.181-20.504-31.33-.015-60.928 7.362-87.286 20.504z"/><path d="m1648.083 0h-965.566c-32.092 0-58.016 17.338-58.016 38.707v621.41c0 21.37 25.909 38.797 58.016 38.797h542.726c48.399-53.82 118.601-87.794 196.539-87.794 77.833 0 147.945 33.988 196.434 87.794h29.867c32.017 0 58.016-17.427 58.016-38.797v-621.41c0-21.37-25.999-38.707-58.016-38.707z"/><path d="m1313.903 736.173h-673.811v95.26h606.446c11.573-38.722 35.616-72.009 67.365-95.26z"/><path d="m1529.571 736.173c31.748 23.251 55.791 56.553 67.275 95.26h169.838v-95.26z"/><path d="m704.111 883.596h-59.301c0-95.604-77.878-173.616-173.571-173.616-95.678 0-173.571 78.012-173.571 173.616h-59.301c0-128.293 104.489-232.737 232.872-232.737 128.472 0 232.872 104.444 232.872 232.737z"/><path d="m1654.609 883.596h-59.301c0-95.604-77.848-173.616-173.526-173.616-95.783 0-173.616 78.012-173.616 173.616h-59.226c0-128.293 104.444-232.737 232.842-232.737 128.293 0 232.827 104.444 232.827 232.737z"/><path d="m471.239 743.281c-77.534 0-140.389 62.825-140.389 140.404 0 77.415 62.855 140.314 140.389 140.314 77.549 0 140.359-62.9 140.359-140.314 0-77.579-62.825-140.404-140.359-140.404zm0 218.163c-42.904 0-77.743-34.929-77.743-77.758 0-42.993 34.84-77.669 77.743-77.669 42.949 0 77.758 34.675 77.758 77.669 0 42.829-34.81 77.758-77.758 77.758z"/><path d="m1421.782 743.281c-77.594 0-140.494 62.825-140.494 140.404 0 77.415 62.9 140.314 140.494 140.314 77.49 0 140.314-62.9 140.314-140.314 0-77.579-62.825-140.404-140.314-140.404zm0 218.163c-42.919 0-77.758-34.929-77.758-77.848s34.84-77.579 77.758-77.579c42.829 0 77.654 34.675 77.654 77.579s-34.825 77.848-77.654 77.848z"/><path d="m1193.927 507.333c-16.89-16.92-36.423-33.809-51.729-50.744 23.475-5.167 46.906-10.543 70.083-15.755-5.809-11.11-13.276-19.219-19.234-29.777-28.359 5.257-56.613 10.095-84.777 15.307-22.609-23.46-48.489-45.218-69.5-67.857 31.45-8.213 62.915-16.427 94.409-24.76 23.072 19.249 45.95 38.827 68.395 58.808 9.528-7.407 18.921-14.874 27.955-22.281-17.159-16.755-37.767-31.584-53.357-48.026 24.506-5.854 48.907-11.753 73.248-17.845-3.479-12.768-7.213-25.671-10.618-38.379-24.73 6.496-48.743 13.604-73.219 20.429 6.869-22.878 15.561-44.487 21.997-67.484-11.648-2.285-23.714-3.674-35.586-5.585-9.318 28.478-18.204 57.553-28.986 84.986-31.554 8.139-63.079 16.472-94.663 24.924 8.437-31.271 17.293-62.138 26.208-93.14 26.746-9.483 53.477-18.951 80.282-28.538-.09-12.305 2.121-23.042 1.538-35.318-23.236 6.929-46.219 13.694-69.366 20.698 5.734-23.416 13.276-46.055 18.846-69.739-13.53-5.033-27.074-9.244-40.723-13.56-5.705 24.401-11.992 48.459-18.517 72.352-15.068-18.368-30.061-36.064-45.681-52.999-7.138 9.333-16.248 17.636-22.773 27.836 14.426 15.74 28.956 32.346 43.456 49.25 3.569 4.42 13.395 12.365 14.515 17.412 1.284 5.286-4.077 18.293-5.69 24.401-6.212 25.223-12.156 50.296-18.921 74.055-23.401-25.566-48.519-48.31-71.695-73.741 5.331-28.822 11.364-57.225 15.859-86.226-11.006-4.151-22.34-8.303-33.839-12.44-3.599 23.595-7.885 45.95-12.902 68.694-17.203-18.547-34.825-36.736-52.924-54.059-9.244 10.633-18.503 20.802-28.478 30.823 16.352 18.353 37.065 34.377 52.222 52.312-22.997 5.481-46.473 10.662-69.246 15.77 5.988 10.259 13.276 18.413 19.055 29.523 27.926-4.555 55.836-9.124 83.732-13.873 22.714 22.744 48.773 44.755 69.515 67.559-31.211 8.363-62.586 16.457-93.812 24.804-22.714-19.817-44.89-39.484-67.245-59.898-9.318 7.855-19.921 14.441-27.94 23.087 17.353 15.411 37.378 31.196 52.536 47.025-24.282 5.988-48.19 11.887-72.83 17.95 3.913 12.873 7.526 25.7 10.857 38.722 24.073-6.929 48.34-13.724 72.591-20.698-6.63 23.057-14.814 44.636-21.594 67.604 11.768 1.867 23.998 4.017 35.9 5.63 9.124-28.15 17.323-56.642 28.179-84.21 30.882-8.064 62.437-16.218 93.662-24.565-8.198 31.106-17.069 62.287-26.372 92.856-26.223 9.169-52.655 18.682-78.923 27.94.806 12.41-1.523 23.102-1.732 35.049 23.251-6.929 45.98-13.53 68.798-20.548-5.316 23.998-13.365 46.488-18.727 70.59 14.187 3.674 27.298 9.408 41.395 13.53 5.824-24.356 11.693-48.504 18.368-72.621 15.098 17.771 30.39 34.974 45.92 52.342 6.69-9.931 16.233-18.144 22.385-28.224-18.965-22.549-39.245-43.456-58.27-66.17 7.915-32.271 16.173-65.08 24.715-97.59 17.442 17.89 35.721 36.288 53.82 53.925 4.48 4.54 16.516 13.634 17.636 19.175 1.344 4.674-2.778 16.188-3.942 21.265-4.077 22.52-8.094 43.113-11.782 64.229 11.334 4.659 22.803 8.572 34.272 12.514 4.122-22.609 8.228-44.935 12.395-67.35 17.621 18.159 35.766 35.661 53.596 53.492 8.512-11.11 19.533-21.31 27.254-32.868z" fill="#fff"/></symbol><symbol id="flowers" viewBox="0 0 860 1024"><path d="m837.819 173.438c-8.91-10.876-20.06-19.762-32.766-26.37-2.165-24.105-12.619-46.393-30.812-63.28-21.964-20.359-53.237-29.531-83.676-24.528-8.562 1.394-16.899 3.858-24.901 7.292-3.97-2.526-8.076-4.766-12.295-6.708-18.144-8.338-38.03-11.088-57.456-7.902-4.542.747-8.972 1.867-13.303 3.211-24.167-20.683-55.701-27.875-86.688-22.014-46.891-51.694-129.384-41.826-164.067 22.163-38.565 3.024-70.373 26.544-85.045 59.758-27.938-3.124-54.146 5.588-74.629 22.661-66.204-18.965-130.542 29.145-128.04 97.514-11.735 8.164-21.603 18.418-29.157 30.476-27.552 44.003-15.954 100.028 25.573 130.43-2.489 32.754 10.18 63.902 34.446 84.199 23.47 19.563 56.199 27.527 89.077 18.866 37.644 35.603 95.847 37.433 134.96-.286 12.606 26.482 24.926 55.278 36.736 85.854-20.496-16.7-47.55-30.763-78.151-39.922 3.186 27.788 11.237 58.7 23.557 84.697-52.354-24.478-90.16-32.181-132.384-42.498 23.906 142.887 92.064 300.333 219.905 279.364 12.183-1.991 39.536-8.91 44.987-20.048 13.166 59.783 23.42 119.976 29.705 177.656 23.308-2.539 58.837-8.288 82.307-8.748-1.12-57.966 1.157-119.591 6.197-181.638 40.382 17.447 100.949-10.814 146.757-64.499-19.737-6.135-42.124-10.528-64.089-12.096 86.103-44.414 112.908-152.68 128.302-244.769-38.926 9.495-108.055 23.072-175.391 68.581 9.595-47.115 20.521-91.429 32.43-131.077 40.32 20.745 89.687 11.2 119.802-25.71 69.091 9.047 123.486-49.74 109.399-117.96 37.557-35.803 41.452-92.785 8.711-132.67zm-468.27-59.099c.037-2.153.149-4.231.348-6.309 6.172-68.444 88.33-76.695 102.691-7.479 11.723-9.259 23.595-14.299 34.633-16.115 7.566-1.244 14.734-.958 21.18.535 23.321 5.351 38.067 25.996 35.89 50.188 0 0 0 0 0 .012-.722 7.952-3.97 21.815-16.601 37.209 15.481 3.074 25.947 8.985 32.517 14.112 14.149 11.026 21.417 26.643 19.986 42.846-1.481 16.215-11.436 30.277-27.34 38.578-5.14 2.688-12.196 5.413-21.317 6.907-4.007.66-8.4 1.07-13.228 1.145 9.669 17.397 10.391 31.634 9.682 39.598-3.957 43.742-57.742 61.55-96.457 17.584-8.313 20.558-24.005 36.599-45.883 38.715.299-16.651-3.522-33.139-11.038-48.346 11.511-20.272 15.941-43.954 11.436-67.735 6.77 4.58 14.772 7.579 23.495 8.363 4.306.398 8.537.224 12.631-.448 21.964-3.609 39.598-21.666 41.676-44.875 2.476-27.502-17.82-51.831-45.31-54.345-4.306-.373-8.524-.212-12.606.46-21.977 3.609-39.623 21.678-41.726 44.875-.012.112 0 .224-.012.348-3.559-4.156-7.479-8.076-11.797-11.673-12.892-10.789-27.938-18.082-44.19-21.628-6.384-15.269-16.215-28.784-29.17-39.598-1.132-.946-2.364-1.742-3.534-2.626 11.748-24.503 42.137-35.342 74.044-20.297zm-89.786 295.306c1.531 24.117-6.62 42.012-18.169 52.54-16.949 15.456-41.253 15.804-59.111.908-5.874-4.916-15.045-15.045-20.284-33.388-21.267 20.608-51.482 28.684-73.534 10.316-11.972-10.005-17.634-25.523-15.506-42.572.996-7.927 4.069-19.027 12.482-31.596-18.978-1.879-30.588-9.072-36.475-13.963v-.012c-17.87-14.921-21.865-38.889-9.694-58.339 7.79-12.444 22.562-23.134 44.265-26.681 1.356-.224 2.725-.411 4.119-.572-16.327-24.851-13.328-49.106-.908-64.002 6.645-7.964 16.451-13.652 27.813-15.518 14.535-2.377 31.596 1.518 47.749 15.008 1.543 1.269 3.024 2.613 4.517 4.044 6.533-18.219 17.41-27.49 24.242-31.758 5.525-3.46 11.461-5.675 17.497-6.67 12.818-2.103 26.021 1.356 36.611 10.18 13.452 11.225 21.106 29.543 18.368 52.602 3.447-1.058 6.832-1.854 10.13-2.389 17.97-2.949 33.563 1.556 44.912 11.038 15.556 12.955 20.72 33.612 13.154 52.602-2.937 7.467-10.142 19.836-26.867 29.531 20.595 14.796 31.011 36.611 27.465 57.12-2.775 15.929-13.502 28.759-28.734 34.347-2.9 1.07-5.886 1.842-8.948 2.352-11.001 1.804-22.972.025-35.093-5.127zm91.702 402.153c-73.397 23.931-132.62-70.709-155.045-151.996 68.444 24.055 178.042 83.676 155.045 151.996zm-31.783-349.389c.734-.249 1.506-.436 2.228-.697 20.16-7.404 36.661-20.707 47.861-37.806 8.562 1.008 17.273.871 25.984-.423 8.935 48.16 17.323 103.488 23.955 161.304-7.28-9.906-15.307-19.55-24.03-28.771-5.737 16.837-10.69 35.193-14.448 53.922-19.052-53.847-39.847-103.824-61.55-147.528zm335.053 123.05c-21.703 73.646-73.161 148.275-133.08 130.056-18.094-57.642 75.687-109.113 133.08-130.056zm-172.778 61.264c-.958 1.668-1.879 3.36-2.738 5.052-7.492-88.554-19.973-175.678-33.612-247.084 21.155 7.479 42.485 8.524 64.039 2.327 6.446 2.103 14.261 4.256 26.805 4.828-22.263 68.494-40.668 149.955-54.494 234.876zm293.103-380.886v0c-5.202 5.625-15.792 14.236-34.396 18.505 9.943 11.399 14.411 22.014 16.402 29.755 4.268 16.651.635 32.766-9.956 44.215-6.732 7.255-15.556 11.847-25.436 13.477-5.687.933-11.723.884-17.907-.224-7.865-1.394-18.791-5.065-30.912-14.112-2.85 18.853-10.652 30.078-15.842 35.691-7.38 7.952-16.551 12.78-26.146 14.348-11.013 1.804-22.587-.697-32.604-7.728-12.805-8.96-23.159-25.698-24.715-49.79-.199.112-.386.199-.585.311 3.721-9.047 6.334-18.841 7.342-30.041.212-2.377.361-4.953.398-7.703 9.98-5.675 18.741-12.768 26.158-20.907 9.532 5.227 20.409 6.981 30.812 5.276 10.142-1.655 19.824-6.583 27.365-14.709 17.995-19.413 16.85-49.753-2.551-67.76-9.234-8.549-20.931-12.706-32.592-12.706-5.177-20.67-16.999-39.648-34.284-54.146 2.514-15.008 1.668-29.842-2.377-44.29 6.11.199 12.295 1.531 18.231 4.268 7.305 3.348 19.289 11.175 28.087 28.411 1.294-1.605 2.588-3.136 3.97-4.592 11.163-12.034 23.607-18.355 35.529-20.309 15.294-2.514 29.717 2.165 39.461 11.2 14.224 13.204 20.284 36.86 7.255 63.603 24.13-.249 41.577 8.823 51.47 20.882 14.56 17.708 13.652 42.012-2.178 59.074z"/><path d="m203.304 269.969c-10.964 1.792-21.342 7.38-29.033 16.576-16.949 20.334-14.224 50.574 6.098 67.523 11.125 9.296 25.225 12.681 38.491 10.503 10.964-1.804 21.355-7.392 29.033-16.588 16.962-20.334 14.236-50.562-6.098-67.536-11.113-9.284-25.225-12.656-38.491-10.478z"/></symbol><symbol id="magnify" viewBox="0 0 1327 1024"><path d="m0 464.447c2.405 67.128 1.277 226.844 85.012 365.195 53.439 88.293 135.27 150.399 236.864 137.938-2.367 20.051-4.271 35.806-5.911 60.853h75.844c1.628-25.048 3.469-37.647 5.761-56.169 99.464 33.864 238.73-38.06 302.05-159.065-102.282-27.327-202.21-31.41-271.793-7.101 12.186-49.782 26.864-97.335 43.833-141.908 66.677 67.817 174.357 63.446 236.2-11.948 118.789 32.399 222.774-64.247 200.82-184.126-.1-.551-.2-1.102-.313-1.641 82.695-77.51 83.672-158.564 38.436-222.348-15.479-21.842-36.244-39.663-60.716-52.625 2.041-43.608-12.261-85.363-42.368-117.524-29.707-31.71-72.425-49.882-117.223-49.882-22.969 0-45.875 4.784-67.629 13.927-8.792-7.477-18.222-13.989-28.154-19.412-60.227-33.038-134.631-25.236-186.443 23.232-22.844 21.428-38.811 48.179-47.24 78.061-30.558 6.562-58.461 20.927-80.917 41.992-58.687 54.917-68.293 146.016-17.759 213.97-50.734 101.882 5.899 215.823 113.003 234.321-14.19 34.365-27.014 70.447-38.373 107.993-82.557-127.242-236.738-201.008-372.985-253.733zm325.157 426.312c-9.681 2.054-19.249 3.093-28.592 3.093-103.973 0-192.454-133.78-214.433-314.123 109.684 52.838 222.023 137.261 249.763 224.49 9.819 30.846 7.627 59.288-6.738 86.54zm76.358-524.837c-31.673-16.018-46.175-37.947-52.362-51.31-15.868-34.015-8.566-72.4 18.56-97.774 17.145-16.093 40.527-25.661 68.055-25.661 10.107 0 20.777 1.29 31.898 4.02-7.439-41.992 4.659-76.345 28.116-98.337 16.218-15.154 36.557-22.969 57.322-22.969 14.014 0 28.229 3.569 41.479 10.833 12.95 7.076 33.864 22.944 47.753 55.643 22.205-24.083 51.686-40.903 84.173-40.903 24.897 0 47.227 10.032 62.181 26.012 24.334 26 32.362 70.121 5.085 117.386 44.222 2.643 74.993 21.516 91.549 44.873 24.359 34.34 19.562 78.712-11.61 107.918 0 0-.013 0-.013.013-10.257 9.606-30.771 24.008-65.362 29.431 16.732 22.155 23.545 42.18 26.2 56.595 11.923 65.162-40.728 114.518-104.975 98.312-14.24-3.557-33.777-11.685-54.792-29.832-7.677 34.165-23.382 53.702-33.627 63.321-16.494 15.442-36.745 23.232-56.984 23.232-18.034 0-36.069-6.199-51.46-18.686-22.28-18.072-39.087-50.045-38.824-94.355-18.172 8.98-36.394 13.613-53.802 13.613-9.142 0-18.059-1.277-26.626-3.87-65.838-20.013-84.461-108.87-11.935-167.506zm208.447-105.138c-21.566 0-43.17 7.865-60.14 23.745-35.468 33.251-37.283 88.919-4.058 124.399 17.32 18.485 40.753 27.828 64.235 27.828 21.554 0 43.157-7.878 60.127-23.783 35.468-33.213 37.271-88.919 4.095-124.387-17.32-18.473-40.765-27.803-64.26-27.803z"/><path d="m1085.292 669.174c.589.952 1.252 1.828 2.054 2.78 9.33 10.758 138.727 153.993 153.367 168.634s49.206-2.705 63.571-18.122c14.352-15.417 31.623-47.816 16.982-62.456s-157.826-143.962-168.621-153.329c-1.202-1.102-2.455-1.904-3.619-2.567-1.102 8.779-7.139 21.741-25.286 39.888-17.083 17.057-29.594 23.495-38.448 25.173z"/><path d="m1123.928 549.96c61.116-102.608 47.503-237.352-40.84-325.695-104.436-104.436-273.734-104.436-378.17 0-104.399 104.436-104.399 273.734 0 378.17 87.717 87.679 221.146 101.731 323.529 42.155 3.657 3.369 14.565 11.196 33.05 5.636 10.896-3.294 24.447-11.196 40.728-27.44 16.243-16.319 24.121-29.782 27.34-40.627 5.197-17.571-1.941-28.179-5.636-32.199zm-390.456 23.933c-88.481-88.556-88.481-232.593 0-321.086 88.519-88.481 232.555-88.481 321.086 0 88.519 88.556 88.519 232.593 0 321.086-88.531 88.481-232.568 88.481-321.086 0z"/><path d="m733.472 573.893c-88.481-88.556-88.481-232.593 0-321.086 88.519-88.481 232.555-88.481 321.086 0 88.519 88.556 88.519 232.593 0 321.086-88.531 88.481-232.568 88.481-321.086 0z" fill="#fff" opacity=".5"/></symbol><symbol id="temp" viewBox="0 0 450 1024"><path d="m358.498 618.499v-484.797c0-73.721-59.982-133.703-133.703-133.703s-133.703 59.982-133.703 133.703v484.784c-25.723 19.077-47.289 43.593-62.857 71.58-18.48 33.202-28.236 70.933-28.236 109.137 0 30.339 5.948 59.783 17.671 87.509 11.324 26.768 27.527 50.81 48.16 71.443s44.675 36.835 71.443 48.16c27.726 11.735 57.17 17.671 87.509 17.671s59.783-5.948 87.509-17.671c26.768-11.324 50.81-27.527 71.443-48.16s36.835-44.675 48.16-71.443c11.735-27.726 17.671-57.17 17.671-87.509 0-38.192-9.769-75.936-28.236-109.137-15.543-27.987-37.109-52.503-62.832-71.568zm-133.702 354.093c-95.61 0-173.4-77.79-173.4-173.4 0-59.074 29.667-113.543 79.346-145.699l11.735-7.591v-512.212c0-45.385 36.923-82.307 82.307-82.307s82.307 36.923 82.307 82.307v512.212l11.735 7.591c49.69 32.144 79.346 86.613 79.346 145.699.012 95.623-77.765 173.4-173.375 173.4zm52.055-302.561v-394.488h-104.097v394.488c-51.109 20.62-87.185 70.672-87.185 129.173 0 76.894 62.334 139.24 139.24 139.24 76.894 0 139.24-62.334 139.24-139.24-.012-58.501-36.089-108.553-87.198-129.173z"/></symbol><symbol id="handle" viewBox="0 0 905 1024"><path d="m62.654 322.669c1.671 46.493.891 157.091 58.872 252.913 37.005 61.148 93.679 107.564 164.039 98.934-1.638 13.885-2.957 12.566-4.09 45.548h52.529c1.121-32.982 2.408-29.475 3.991-42.304 68.887 23.45 165.325-28.056 209.18-111.862-70.833-18.92-140.04-22.603-188.226-5.772 8.443-34.477 18.602-67.832 30.354-98.703 46.174 46.966 120.745 43.723 163.577-8.487 82.267 22.438 154.277-44.602 139.072-127.617-.066-.385-.143-.814-.209-1.198 57.267-53.683 57.949-109.84 26.616-154.013-10.719-15.128-25.099-27.485-42.051-36.467 1.418-30.2-8.498-59.125-29.343-81.398-20.58-21.966-50.154-34.543-81.179-34.543-15.908 0-31.761 3.309-46.834 9.642-6.091-5.178-12.621-9.686-19.492-13.445-41.711-22.889-93.239-17.469-129.112 16.095-15.82 14.842-26.88 33.366-32.707 54.057-21.163 4.551-40.49 14.49-56.036 29.079-40.644 38.028-47.296 101.121-12.302 148.186-35.136 70.559 4.09 149.461 78.265 162.269-9.829 23.802-18.712 48.791-26.572 74.791-57.212-88.105-163.984-139.193-258.344-175.704zm225.187 295.24c-6.706 1.429-13.325 2.144-19.8 2.144-72.01 0-133.278-92.645-148.505-217.546 75.956 36.588 153.76 95.064 172.966 155.464 6.794 21.361 5.288 41.051-4.661 59.938zm52.88-363.478c-21.933-11.093-31.97-26.275-36.258-35.532-10.994-23.56-5.937-50.132 12.852-67.711 11.873-11.148 28.067-17.766 47.131-17.766 7.003 0 14.391.891 22.098 2.781-5.156-29.079 3.232-52.869 19.47-68.107 11.225-10.499 25.308-15.908 39.688-15.908 9.708 0 19.547 2.474 28.727 7.509 8.971 4.903 23.45 15.897 33.069 38.533 15.38-16.678 35.796-28.331 58.289-28.331 17.238 0 32.707 6.948 43.063 18.008 16.854 18.008 22.416 48.56 3.518 81.3 30.618 1.825 51.935 14.897 63.402 31.069 16.865 23.78 13.544 54.507-8.037 74.736 0 0 0 0 0 0-7.113 6.662-21.306 16.634-45.273 20.394 11.588 15.336 16.304 29.211 18.14 39.193 8.256 45.13-28.21 79.31-72.702 68.085-9.861-2.463-23.395-8.091-37.94-20.657-5.31 23.659-16.194 37.192-23.296 43.854-11.423 10.697-25.451 16.095-39.457 16.095-12.489 0-24.978-4.288-35.631-12.94-15.435-12.522-27.067-34.653-26.891-65.347-12.588 6.223-25.209 9.433-37.258 9.433-6.332 0-12.511-.88-18.437-2.682-45.591-13.863-58.498-75.396-8.267-116.007zm144.361-72.813c-14.93 0-29.892 5.442-41.656 16.447-24.56 23.032-25.825 61.577-2.814 86.159 11.994 12.797 28.221 19.272 44.492 19.272 14.93 0 29.892-5.453 41.645-16.469 24.56-22.999 25.814-61.577 2.836-86.137-12.005-12.808-28.232-19.272-44.503-19.272z"/><path d="m596.449 753.331c-28.023 20.119-57.487 27.177-105.497 29.837-25.22 1.396-62.544-11.983-78.045-25.737-17.579-15.589-15.699-38.402-3.98-47.68 13.325-10.543 64.589-7.432 104.541-21.35 45.284-15.776 112.016-50.077 135.4-40.194 19.998 8.454 73.043 24.945 123.989 45.174s117.282 44.206 128.903 53.628l2.88 141.414c-2.88 10.026-78.276 29.101-123.032 49.835-85.433 39.589-212.06 85.257-245.932 85.719-10.994.154-96.438-17.843-234.686-57.949-10.807-3.133-73.032-41.414-128.606-76.704-74.846-47.526-173.637-94.899-172.384-109.158.759-8.685 13.281-27.375 26.429-33.597 19.217-9.103 46.647-9.092 68.865-3.144-19.096 22.845-16.403 31.091-2.408 38.061 71.977 35.829 202.298 106.86 246.493 121.768 14.732 4.969 16.172.418 11.994-1.913-112.566-62.94-264.919-123.494-261.027-136.785 6.058-20.69 30.838-34.818 51.825-33.048 41.15 3.463 101.66 37.489 184.818 62.159 41.524 12.324 96.823 24.967 142.128 24.802 68.404-.242 120.657-22.79 127.331-65.139v0z"/></symbol><symbol id="cart-plus" viewBox="0 0 873 1024"><path d="m182.856 897.946c34.898 0 63.181 28.283 63.017 63.037 0 34.734-28.119 63.017-63.017 63.017-34.734 0-63.017-28.283-63.017-63.017 0-34.755 28.119-63.037 63.017-63.037zm410.132 63.037c0-34.755-28.283-63.037-63.017-63.037s-63.017 28.283-63.017 63.037c0 34.734 28.109 63.017 63.017 63.017 34.734 0 63.017-28.283 63.017-63.017zm276.818-719.452c1.935 4.372 2.918 9.216 2.744 14.07-.481 11.95-8.079 22.784-18.903 27.628-2.744 1.137-5.325 2.273-7.916 3.4-13.896 6.134-92.426 37.171-92.426 37.171s-90.337 505.795-91.136 510.167c-2.755 15.667-16.333 26.337-32 26.337h-566.569c-24.084 0-40.079-26.665-27.464-47.688 5.652-9.533 16.148-15.35 27.146-15.35h540.549l5.98-29.88c0 0-554.435-82.586-565.75-85.32-13.251-3.072-23.101-14.705-24.248-28.119-.328-2.099-18.278-209.265-19.722-232.233-1.454-18.729 13.896-34.099 32.317-34.099h645.253c0 0 12.595-70.615 15.667-87.9 1.454-8.233 4.198-15.514 10.506-21.484 3.379-3.236 7.598-5.171 11.95-7.117 11.315-5.018 97.116-38.779 108.585-43.95 3.717-1.618 7.27-3.236 11.315-3.881 14.08-2.417 28.467 5.171 34.12 18.248zm-407.388 209.285h-209.265l-4.035 83.866 200.376 16.486 12.933-100.516v.164zm-396.565-.164c0 0 3.881 46.367 5.816 69.315l145.92 11.971 3.881-81.285h-155.617zm146.248 192.942l3.881-80.312-141.711-11.633 6.134 72.233 131.697 19.712zm221.235 33.454l12.114-94.7-197.949-16.323-4.035 82.422 189.87 28.6zm206.684-78.694l-163.052-13.425-12.452 96.799 156.436 22.958 19.067-106.332zm4.035-31.355c0 0 18.586-95.334 22.303-116.5h-172.104l-13.251 103.096z"/><path d="m641.7 300.442c0 152.102-123.303 275.405-275.405 275.405s-275.405-123.303-275.405-275.405c0-152.102 123.303-275.405 275.405-275.405s275.405 123.303 275.405 275.405z"/><path d="m366.285 600.873c-165.673 0-300.431-134.779-300.431-300.431s134.758-300.442 300.431-300.442 300.442 134.779 300.442 300.431-134.769 300.442-300.442 300.442zm0-550.799c-138.045 0-250.368 112.312-250.368 250.368s112.323 250.368 250.368 250.368 250.368-112.312 250.368-250.368-112.323-250.368-250.368-250.368z"/><path d="m328.632 450.652v-111.667h-112.558v-77.087h112.558v-111.677h75.039v111.677h112.845v77.087h-112.855v111.677h-75.028z" fill="#f1592a"/></symbol><symbol id="cart-check" viewBox="0 0 873 1024"><path d="m182.856 897.946c34.898 0 63.181 28.283 63.017 63.037 0 34.734-28.119 63.017-63.017 63.017-34.734 0-63.017-28.283-63.017-63.017 0-34.755 28.119-63.037 63.017-63.037zm410.132 63.037c0-34.755-28.283-63.037-63.017-63.037s-63.017 28.283-63.017 63.037c0 34.734 28.109 63.017 63.017 63.017 34.734 0 63.017-28.283 63.017-63.017zm276.818-719.452c1.935 4.372 2.918 9.216 2.744 14.07-.481 11.95-8.079 22.784-18.903 27.628-2.744 1.137-5.325 2.273-7.916 3.4-13.896 6.134-92.426 37.171-92.426 37.171s-90.337 505.795-91.136 510.167c-2.755 15.667-16.333 26.337-32 26.337h-566.569c-24.084 0-40.079-26.665-27.464-47.688 5.652-9.533 16.148-15.35 27.146-15.35h540.549l5.98-29.88c0 0-554.435-82.586-565.75-85.32-13.251-3.072-23.101-14.705-24.248-28.119-.328-2.099-18.278-209.265-19.722-232.233-1.454-18.729 13.896-34.099 32.317-34.099h645.253c0 0 12.595-70.615 15.667-87.9 1.454-8.233 4.198-15.514 10.506-21.484 3.379-3.236 7.598-5.171 11.95-7.117 11.315-5.018 97.116-38.779 108.585-43.95 3.717-1.618 7.27-3.236 11.315-3.881 14.08-2.417 28.467 5.171 34.12 18.248zm-407.388 209.285h-209.265l-4.035 83.866 200.376 16.486 12.933-100.516v.164zm-396.565-.164c0 0 3.881 46.367 5.816 69.315l145.92 11.971 3.881-81.285h-155.617zm146.248 192.942l3.881-80.312-141.711-11.633 6.134 72.233 131.697 19.712zm221.235 33.454l12.114-94.7-197.949-16.323-4.035 82.422 189.87 28.6zm206.684-78.694l-163.052-13.425-12.452 96.799 156.436 22.958 19.067-106.332zm4.035-31.355c0 0 18.586-95.334 22.303-116.5h-172.104l-13.251 103.096z"/><path d="m641.7 300.442c0 152.102-123.303 275.405-275.405 275.405s-275.405-123.303-275.405-275.405c0-152.102 123.303-275.405 275.405-275.405s275.405 123.303 275.405 275.405z"/><path d="m366.285 600.873c-165.663 0-300.431-134.779-300.431-300.431s134.779-300.442 300.431-300.442 300.442 134.779 300.442 300.431-134.779 300.442-300.442 300.442zm0-550.799c-138.056 0-250.368 112.312-250.368 250.368s112.312 250.368 250.368 250.368 250.368-112.312 250.368-250.368-112.312-250.368-250.368-250.368z"/><path d="m325.14 444.211c-9.964 0-19.507-3.963-26.552-10.998l-111.104-111.104c-14.674-14.653-14.674-38.451 0-53.105 14.674-14.674 38.431-14.674 53.105 0l84.552 84.531 166.84-166.84c14.674-14.674 38.431-14.674 53.105 0 14.674 14.653 14.674 38.431 0 53.105l-193.393 193.413c-7.045 7.035-16.589 10.998-26.552 10.998z" fill="#fff"/></symbol><symbol id="close" viewBox="0 0 1024 1024"><path d="m901.571 1024c-31.342 0-62.684-11.937-86.558-35.872l-779.141-779.141c-47.809-47.809-47.809-125.307 0-173.115s125.368-47.809 173.176 0l779.141 779.141c47.809 47.809 47.809 125.307 0 173.115-23.935 23.935-55.277 35.872-86.619 35.872z"/><path d="m122.429 1024c-31.342 0-62.684-11.937-86.558-35.872-47.809-47.809-47.809-125.307 0-173.115l779.141-779.141c47.809-47.809 125.307-47.809 173.176 0 47.809 47.809 47.809 125.307 0 173.115l-779.202 779.141c-23.874 23.935-55.216 35.872-86.558 35.872z"/></symbol><symbol id="minus" viewBox="0 0 5632 1024"><path d="m5120 1024h-4608c-282.624 0-512-229.376-512-512s229.376-512 512-512h4608c282.624 0 512 229.376 512 512s-229.376 512-512 512z"/></symbol><symbol id="plus" viewBox="0 0 1024 1024"><path d="m930.909 605.091h-837.818c-51.386 0-93.091-41.705-93.091-93.091s41.705-93.091 93.091-93.091h837.818c51.386 0 93.091 41.705 93.091 93.091s-41.705 93.091-93.091 93.091z"/><path d="m512 1024c-51.386 0-93.091-41.705-93.091-93.091v-837.818c0-51.386 41.705-93.091 93.091-93.091s93.091 41.705 93.091 93.091v837.818c0 51.386-41.705 93.091-93.091 93.091z"/></symbol><symbol id="googleplus" viewBox="0 0 32 32"><path d="m12.032 13.28c-.32-2.432-2.08-4.384-3.936-4.416-1.856-.064-3.072 1.792-2.784 4.224.32 2.432 2.08 4.448 3.936 4.48 1.856.064 3.104-1.856 2.784-4.288z"/><path d="m13.76 26.112c0-.256-.032-.512-.096-.736-.288-1.184-1.376-1.76-2.88-2.816-.544-.16-1.152-.288-1.792-.288-2.752-.032-5.216 1.664-5.216 3.744 0 .128 0 .224.032.352 1.184 1.376 2.56 2.56 4.128 3.456.192.032.384.032.576.032 3.904 0 5.248-1.632 5.248-3.744z"/><path d="m16 0c-8.832 0-16 7.168-16 16 0 2.976.832 5.76 2.24 8.16 1.216-1.472 3.424-2.56 6.016-2.56.448 0 .832-.032 1.248-.032-.544-.544-.992-1.184-.992-1.984 0-.48.16-.96.352-1.376-.224 0-.448-.032-.672-.032-3.264 0-5.472-2.432-5.472-5.312 0-2.816 3.04-5.44 6.24-5.44 1.792 0 7.168 0 7.168 0l-1.6 1.504h-2.272c1.504.384 2.304 2.368 2.304 4.16 0 1.504-.832 2.848-2.016 3.776-1.152.896-1.376 1.28-1.376 2.048 0 .672 1.248 1.76 1.888 2.24 1.888 1.344 2.496 2.592 2.496 4.672 0 2.272-1.92 4.544-5.472 5.056 1.824.704 3.808 1.12 5.856 1.12 8.832 0 16-7.168 16-16 .064-8.832-7.104-16-15.936-16zm8.48 13.952v4.48h-2.24v-4.48h-4.48v-2.24h4.48v-4.48h2.24v4.48h4.48v2.24z"/></symbol><symbol id="linkedin" viewBox="0 0 32 32"><path d="m16 .032c-8.832 0-15.968 7.136-15.968 15.968s7.136 15.968 15.968 15.968c8.832 0 15.968-7.168 15.968-15.968 0-8.832-7.136-15.968-15.968-15.968zm-4.192 21.44c0 .096-.096.192-.192.192h-2.944c-.096 0-.192-.096-.192-.192v-9.6c0-.096.096-.192.192-.192h2.944c.096 0 .192.096.192.192zm-1.664-10.816c-.928 0-1.664-.736-1.664-1.664s.736-1.664 1.664-1.664c.928 0 1.664.736 1.664 1.664s-.736 1.664-1.664 1.664zm13.216 4.032v6.752c0 .096-.096.192-.192.192h-2.944c-.096 0-.192-.096-.192-.192v-5.376c0-1.056-.096-1.888-1.504-1.888-1.024 0-1.568.864-1.568 1.44v5.856c0 .096-.096.192-.192.192h-2.944c-.096 0-.192-.096-.192-.192v-9.6c0-.096.096-.192.192-.192h2.944c.096 0 .192.096.192.192v.928c.512-.576 1.504-1.248 2.944-1.248 2.368 0 3.232 1.728 3.456 2.528-.032-.032 0-.032 0 .608z"/></symbol><symbol id="twitter" viewBox="0 0 32 32"><path d="m32 16c0 8.832-7.168 16-16 16s-16-7.168-16-16c0-8.832 7.168-16 16-16s16 7.168 16 16zm-4.672-7.04c-.832.384-1.728.608-2.656.736.96-.576 1.696-1.472 2.048-2.56-.896.544-1.888.928-2.944 1.12-.832-.896-2.048-1.472-3.392-1.472-2.56 0-4.64 2.08-4.64 4.64 0 .352.032.704.128 1.056-3.872-.192-7.296-2.048-9.6-4.864-.416.672-.64 1.472-.64 2.336 0 1.6.832 3.04 2.08 3.872-.768-.032-1.472-.224-2.112-.576v.064c0 2.24 1.6 4.128 3.744 4.576-.384.096-.8.16-1.216.16-.288 0-.576-.032-.864-.096.608 1.856 2.304 3.2 4.352 3.232-1.6 1.248-3.584 1.984-5.792 1.984-.384 0-.736-.032-1.12-.064 2.048 1.312 4.512 2.08 7.136 2.08 8.544 0 13.248-7.072 13.248-13.248v-.608c.832-.608 1.632-1.44 2.24-2.368z"/></symbol><symbol id="search" viewBox="0 0 32 32"><path d="m20 .005c-6.627 0-12 5.373-12 12 0 2.026.507 3.933 1.395 5.608l-8.344 8.342.007.006c-.652.641-1.058 1.529-1.058 2.516 0 1.949 1.58 3.529 3.529 3.529.985 0 1.874-.406 2.515-1.059l-.002-.002 8.341-8.34c1.676.891 3.586 1.4 5.617 1.4 6.627 0 12-5.373 12-12s-5.373-12-12-12zm-15.205 29.692c-.322.334-.768.543-1.266.543-.975 0-1.765-.789-1.765-1.764 0-.498.21-.943.543-1.266l-.009-.008 8.066-8.066c.705.951 1.545 1.791 2.494 2.498zm15.205-7.691c-5.522 0-10-4.479-10-10s4.478-10 10-10c5.521 0 10 4.478 10 10s-4.479 10-10 10zm0-17.001c.275 0 .5.224.5.5s-.225.5-.5.5c-3.314 0-6 2.687-6 6 0 .276-.224.5-.5.5s-.5-.224-.5-.5c0-3.866 3.133-7 7-7z"/></symbol></defs></svg>
